<?xml version="1.0" encoding="UTF-8"?>
<svg version="1.1" xmlns="http://www.w3.org/2000/svg" width="1000" height="1000">
<path d="M0 0 C1.34714945 -0.0019553 2.69429833 -0.00434505 4.04144633 -0.00712797 C7.74470103 -0.01350879 11.44793397 -0.01369113 15.15119312 -0.01285056 C19.17978472 -0.01302044 23.20836862 -0.01893085 27.23695636 -0.02409142 C35.22793964 -0.03340888 43.21891738 -0.03733803 51.20990541 -0.03961039 C60.78156579 -0.0425747 70.35321884 -0.05127348 79.92487537 -0.06002467 C103.060342 -0.08086109 126.19580989 -0.09133775 149.33128372 -0.10015428 C160.27831684 -0.10436208 171.22534941 -0.1095839 182.17238207 -0.11483881 C219.65262967 -0.13272862 257.13287743 -0.14772405 294.61312866 -0.155159 C296.96582104 -0.15563375 299.31851342 -0.15610964 301.6712058 -0.15658666 C302.83791764 -0.15682303 304.00462947 -0.15705941 305.20669621 -0.15730295 C311.1177309 -0.15850413 317.02876558 -0.15971959 322.93980026 -0.16094494 C324.69938692 -0.16130516 324.69938692 -0.16130516 326.49452078 -0.16167267 C364.52070157 -0.16956412 402.54685115 -0.192993 440.57301832 -0.22550088 C480.78555323 -0.25981503 520.99806989 -0.27951162 561.21061969 -0.28280324 C565.62692563 -0.28322077 570.04323157 -0.28370033 574.45953751 -0.28422642 C575.54693962 -0.28434961 576.63434174 -0.2844728 577.75469543 -0.28459973 C595.23862382 -0.28692979 612.72251591 -0.30257897 630.20643137 -0.32306826 C647.7885886 -0.34334541 665.37070233 -0.34879462 682.95286909 -0.33929763 C693.39114934 -0.33409002 703.82928452 -0.33992519 714.26754383 -0.3618323 C721.25064813 -0.37537712 728.23365299 -0.37423098 735.21675836 -0.36143034 C739.18872618 -0.35455816 743.16041743 -0.35377932 747.13236013 -0.37099043 C785.98125391 -0.52877663 817.20314349 7.52991139 846.17515182 34.54828358 C867.65034621 55.99108702 880.8889194 85.72879701 881.03472096 116.14328623 C881.03061032 117.37026932 881.02649968 118.59725242 881.02226448 119.86141682 C881.02496359 121.21322953 881.02853464 122.56504074 881.03288895 123.91684914 C881.04228746 127.61442543 881.03936576 131.31190242 881.03433341 135.00948339 C881.03105278 139.03885022 881.03936092 143.06819644 881.04615176 147.09755659 C881.05643934 154.15416008 881.05929771 161.21073614 881.05723953 168.26734638 C881.05418631 178.76127323 881.06252069 189.25516978 881.07298878 199.74909072 C881.09232224 219.58395105 881.09795677 239.41880104 881.0991029 259.25366968 C881.10002234 274.57358122 881.1041409 289.89348871 881.11050415 305.21339893 C881.11229927 309.62488094 881.1140789 314.03636296 881.11585391 318.44784498 C881.11651705 320.09296198 881.11651705 320.09296198 881.11719359 321.77131367 C881.12950075 352.6178353 881.13739485 383.46435552 881.13650703 414.31087971 C881.13647588 415.47367703 881.13644472 416.63647435 881.13641262 417.83450796 C881.13624641 423.72789962 881.13604832 429.62129129 881.1358432 435.51468295 C881.13578337 437.2703196 881.13578337 437.2703196 881.13572232 439.06142365 C881.13564145 441.42830749 881.13555785 443.79519133 881.13547154 446.16207517 C881.13424627 482.97962919 881.14925525 519.79714635 881.17661667 556.61468983 C881.20735313 597.99063942 881.2245482 639.3665648 881.22269022 680.74252653 C881.22254097 685.15652339 881.22244355 689.57052024 881.22238159 693.9845171 C881.22234663 695.61474127 881.22234663 695.61474127 881.22231096 697.27789926 C881.22224947 714.75044726 881.23500894 732.22296321 881.25224612 749.69550169 C881.26921893 767.26373129 881.27116355 784.83191411 881.25802748 802.40014738 C881.2506492 812.82955812 881.2542627 823.25882656 881.27391216 833.68822216 C881.28594358 840.66527738 881.28328606 847.64222994 881.26897116 854.61928053 C881.26123475 858.58771873 881.25957873 862.55588231 881.27588587 866.52430075 C881.40961407 901.37676786 875.40546953 930.87843381 852.76499557 958.13422108 C852.09597214 958.95664295 851.4269487 959.77906483 850.73765182 960.62640858 C845.69933989 966.58171389 839.94612134 971.40029824 833.76499557 976.13422108 C832.59517136 977.04494373 832.59517136 977.04494373 831.40171432 977.97406483 C805.39237875 997.25157237 776.24720277 1000.76369451 744.84565771 1000.64188993 C740.80516431 1000.63072144 736.76472545 1000.64303617 732.72423631 1000.65219742 C725.66063559 1000.66503864 718.59716066 1000.66318908 711.5335598 1000.65141773 C701.02965699 1000.6339615 690.52585222 1000.63956161 680.02194419 1000.64958464 C661.25856537 1000.66673991 642.49524514 1000.66125945 623.73186756 1000.64622746 C607.31454835 1000.63316011 590.89724943 1000.62798272 574.47992516 1000.63054562 C573.38964921 1000.63070603 572.29937326 1000.63086645 571.17605865 1000.63103172 C566.74999213 1000.63169534 562.32392562 1000.63239776 557.89785912 1000.63315706 C516.40924727 1000.64017548 474.92067114 1000.62470777 433.43206839 1000.59853361 C396.58640856 1000.57541173 359.74078798 1000.57003398 322.89512253 1000.580266 C313.45648163 1000.5828681 304.01784074 1000.58545313 294.57919979 1000.58786392 C292.8360846 1000.58831009 292.8360846 1000.58831009 291.05775496 1000.58876528 C260.2484744 1000.59638193 229.43919705 1000.5899666 198.62991792 1000.5791679 C195.31451072 1000.57802012 191.99910352 1000.57687694 188.68369632 1000.57574108 C186.48444541 1000.57498583 184.2851945 1000.57422019 182.0859436 1000.57344407 C165.6770338 1000.56778932 149.26813416 1000.56911321 132.85922432 1000.57367229 C114.20256273 1000.5787823 95.54593914 1000.57291706 76.88928702 1000.552778 C66.45214693 1000.54180094 56.01508156 1000.53898993 45.57793921 1000.54806653 C38.60238846 1000.55329367 31.62690154 1000.54756819 24.65136417 1000.53301318 C20.67986707 1000.52502492 16.70852075 1000.52166008 12.73702457 1000.53158575 C9.11599653 1000.54053227 5.49525706 1000.53541305 1.87425495 1000.51960631 C-0.02455019 1000.51478777 -1.9233758 1000.52447467 -3.82215813 1000.53495494 C-15.66429094 1000.45563523 -27.09696057 998.25253242 -38.29750443 994.38422108 C-39.04935013 994.12673084 -39.80119583 993.86924061 -40.57582474 993.60394764 C-68.50327992 983.742324 -90.72333352 963.79663477 -105.23500443 938.13422108 C-105.7686763 937.21511951 -106.30234818 936.29601795 -106.85219193 935.34906483 C-115.76810368 918.92623255 -119.55410243 900.03345392 -119.49227333 881.5144558 C-119.49497158 880.16210315 -119.49854215 878.80975201 -119.5028978 877.45740369 C-119.51230785 873.75366628 -119.5093708 870.05002786 -119.50434226 866.34628575 C-119.50106463 862.31197838 -119.5093673 858.27769167 -119.51616061 854.24339098 C-119.52645305 847.17656238 -119.52930571 840.10976118 -119.52724838 833.04292583 C-119.5241964 822.53377841 -119.53252681 812.02466126 -119.54299763 801.51551972 C-119.56233591 781.65193219 -119.56796581 761.78835499 -119.56911175 741.92475916 C-119.57003106 726.58241714 -119.57414893 711.24007916 -119.580513 695.89773846 C-119.58230811 691.48037655 -119.58408774 687.06301463 -119.58586276 682.64565271 C-119.58630485 681.54745458 -119.58674695 680.44925644 -119.58720244 679.31777958 C-119.59951053 648.42803424 -119.60740361 617.5382903 -119.60651588 586.6485424 C-119.60648473 585.4839962 -119.60645357 584.31945 -119.60642147 583.11961453 C-119.60625525 577.21731549 -119.60605717 571.31501645 -119.60585205 565.41271741 C-119.60581216 564.2405177 -119.60577227 563.06831799 -119.60573117 561.86059707 C-119.6056503 559.49012248 -119.6055667 557.11964788 -119.60548039 554.74917329 C-119.6042552 517.87807643 -119.61926231 481.00701638 -119.64662552 444.13593006 C-119.67736199 402.70248899 -119.69455703 361.2690721 -119.69269907 319.83561891 C-119.69254982 315.4154278 -119.6924524 310.9952367 -119.69239044 306.57504559 C-119.69236713 305.48669982 -119.69234382 304.39835406 -119.69231981 303.27702812 C-119.69225832 285.77931968 -119.70501825 268.28164325 -119.72225497 250.78394432 C-119.73922786 233.18982793 -119.74117235 215.59575824 -119.72803633 198.00163818 C-119.72065796 187.55668014 -119.7242718 177.11186419 -119.74392101 166.66692128 C-119.75595228 159.67946722 -119.75329507 152.69211567 -119.73898001 145.70466624 C-119.73124344 141.73027119 -119.72958804 137.75615034 -119.74589472 133.78177501 C-119.82227902 113.87560669 -119.54553038 94.3500378 -111.48500443 75.75922108 C-111.1421138 74.93889393 -110.79922318 74.11856678 -110.44594193 73.27338123 C-105.53523936 61.80984792 -99.44350386 51.57555598 -91.23500443 42.13422108 C-90.53633255 41.30277576 -89.83766068 40.47133045 -89.11781693 39.61468983 C-66.72433656 13.67491097 -33.88568303 -0.04062542 0 0 Z " fill="#CC0001" transform="translate(119.23500442504883,-0.13422107696533203)"/>
<path d="M0 0 C6.29518584 -0.06937552 12.58901189 -0.12895578 18.88427734 -0.16479492 C21.01974007 -0.17975635 23.15517275 -0.20013284 25.29052734 -0.22631836 C44.32221061 -0.45362886 58.92353249 -0.36945913 73.46875 13.32421875 C86.93651306 27.26335351 90.12033571 45.17964046 90.17700195 63.91674805 C90.18357315 64.87548828 90.19014435 65.83422852 90.19691467 66.82202148 C90.21649621 69.96858819 90.22827012 73.11510776 90.23828125 76.26171875 C90.24235678 77.34036509 90.2464323 78.41901142 90.25063133 79.53034401 C90.27141746 85.22896758 90.28575682 90.92756753 90.29516602 96.6262207 C90.30627463 102.51093222 90.34074688 108.39527022 90.38033772 114.27984905 C90.40644415 118.8102744 90.41485205 123.34060933 90.41844749 127.87110329 C90.42332111 130.0412533 90.43495704 132.21139906 90.45348549 134.38147545 C90.47777149 137.41176883 90.47693223 140.44107514 90.4699707 143.47143555 C90.48918579 144.81420311 90.48918579 144.81420311 90.50878906 146.18409729 C90.47457859 150.26499281 90.33962596 152.44558493 88.16593933 155.99397278 C83.50143158 160.31409818 77.33772511 161.56734202 71.33203125 163.15625 C68.96715426 163.86058632 68.96715426 163.86058632 67.29296875 165.43359375 C63.69990011 167.88814319 59.69948099 168.5765046 55.5 169.5625 C54.59507812 169.77865967 53.69015625 169.99481934 52.7578125 170.2175293 C50.17483635 170.82557409 47.58840936 171.41558902 45 172 C43.9171875 172.25265625 42.834375 172.5053125 41.71875 172.765625 C20.76445819 176.98056875 -7.15979366 175.66313191 -25.375 163.75 C-35.26236982 156.19669781 -42.38405496 146.36694548 -45 134 C-45.88804233 121.53158713 -45.45208812 109.39982061 -40 98 C-39.34 98 -38.68 98 -38 98 C-37.7525 97.46375 -37.505 96.9275 -37.25 96.375 C-30.33550841 83.23746598 -17.41855476 75.92308185 -3.546875 71.5234375 C17.66469264 65.29712338 39.10983969 65.7269244 61 66 C60.83983505 54.52636574 59.4910514 45.3058653 53.3359375 35.29296875 C52 33 52 33 52 31 C50.35293725 30.28627281 48.67798788 29.63763539 47 29 C46.39929688 28.75894531 45.79859375 28.51789062 45.1796875 28.26953125 C36.34252962 25.14960275 27.14161026 25.19831447 17.875 24.8125 C16.1379666 24.73096512 14.40098622 24.64829222 12.6640625 24.56445312 C8.4431475 24.3610598 4.22216557 24.18107168 0 24 C0 16.08 0 8.16 0 0 Z " fill="#FDF6F5" transform="translate(224,488)"/>
<path d="M0 0 C26.64943634 -0.28350464 26.64943634 -0.28350464 39.32714844 1.28857422 C43.33937787 1.78024323 47.1420132 2.00179884 51.1875 1.875 C58.07885721 1.81109251 62.47005985 5.1794469 68 9 C68.90363281 9.60199219 69.80726563 10.20398438 70.73828125 10.82421875 C81.51543607 18.6249818 86.23138241 29.65299134 88.63865662 42.45422363 C89.95645481 51.73852118 89.47540989 61.27426663 89.390625 70.625 C89.38314909 73.06835463 89.37746256 75.51171532 89.37347412 77.95507812 C89.35832413 84.33371017 89.31913551 90.71196814 89.2746582 97.0904541 C89.23347426 103.62014712 89.21541405 110.14990157 89.1953125 116.6796875 C89.15262974 129.45328304 89.0852968 142.22662147 89 155 C87.56705502 155.84114171 86.12845595 156.67265687 84.6875 157.5 C83.88699219 157.9640625 83.08648438 158.428125 82.26171875 158.90625 C80 160 80 160 77 160 C76.67 160.99 76.34 161.98 76 163 C63.13828902 170.58663136 47.34475238 170.659077 32.84057617 171.70629883 C29.92727742 171.90369531 29.92727742 171.90369531 27 173 C21.66795135 173.21921361 16.33411244 173.11015083 11 173 C10.30519531 172.98743164 9.61039063 172.97486328 8.89453125 172.96191406 C-6.8164253 172.59532508 -19.61951396 168.92129932 -31.8125 158.625 C-42.40843802 145.90987437 -45.98853065 131.41333902 -45 115 C-43.28058853 102.38046626 -36.75399121 92.07404193 -27 84 C-17.68342808 77.20755259 -7.93430327 72.50520536 3.25 69.8125 C3.89211426 69.6575708 4.53422852 69.5026416 5.19580078 69.34301758 C18.62758516 66.34202173 31.75128742 65.72443035 45.4375 65.875 C47.0553329 65.88506579 48.67317198 65.89418518 50.29101562 65.90234375 C54.19416743 65.92403572 58.09701216 65.95835959 62 66 C61.72775549 63.305894 61.44348042 60.61395121 61.15234375 57.921875 C61.07737671 57.1676123 61.00240967 56.41334961 60.9251709 55.63623047 C60.17676481 48.86580862 58.16289187 43.04422067 55 37 C54.54753906 36.12214844 54.09507812 35.24429688 53.62890625 34.33984375 C51.76150781 31.65741769 50.30472427 30.71225715 47.375 29.3125 C46.57835937 28.91675781 45.78171875 28.52101563 44.9609375 28.11328125 C35.47682142 24.5473537 25.92244318 24.57988502 15.9375 24.375 C14.38865172 24.33674483 12.83982301 24.29768894 11.29101562 24.2578125 C7.52745533 24.16115606 3.76406073 24.08094754 0 24 C0 16.08 0 8.16 0 0 Z " fill="#FDF7F7" transform="translate(582,488)"/>
<path d="M0 0 C4.25039766 -0.08173842 8.49918727 -0.14086099 12.75 -0.1875 C14.53083984 -0.22520508 14.53083984 -0.22520508 16.34765625 -0.26367188 C31.00087593 -0.38378023 45.61935257 3.32853405 57 13 C67.58980718 24.90821691 71.33811916 39.6786424 71.22705078 55.21118164 C71.22734283 56.29514221 71.22763489 57.37910278 71.22793579 58.49591064 C71.2265512 62.05074285 71.21103101 65.60536101 71.1953125 69.16015625 C71.19157928 71.63593939 71.18873377 74.11172401 71.18673706 76.58750916 C71.17912498 83.08283616 71.15949733 89.57807279 71.1373291 96.07336426 C71.11681836 102.70970604 71.10772418 109.34605673 71.09765625 115.98242188 C71.07624914 128.98831966 71.04253059 141.99415501 71 155 C68.5970983 156.29974454 66.19225125 157.59563913 63.78613281 158.8894043 C62.7705278 159.43950794 62.7705278 159.43950794 61.73440552 160.00072479 C57.14671426 162.46250428 52.77479452 164.38524454 47.75 165.8125 C46.74610229 166.10120972 46.74610229 166.10120972 45.72192383 166.39575195 C43.81745005 166.94050885 41.90884801 167.47077441 40 168 C39.08089844 168.29648437 38.16179687 168.59296875 37.21484375 168.8984375 C14.99113494 175.83690609 -16.83896811 176.67728896 -38 166 C-49.97675849 158.56230557 -58.48155538 148.83604572 -62 135 C-65.18611521 119.15731677 -62.79054976 105.48102967 -54 92 C-47.20631734 83.26174875 -38.80216256 78.60648077 -29 74 C-28.18144531 73.59007812 -27.36289062 73.18015625 -26.51953125 72.7578125 C-5.10038673 62.977035 21.03615349 64.68349982 44 65 C43.72172215 61.41549495 43.42505469 57.83274263 43.125 54.25 C43.04636719 53.23421875 42.96773437 52.2184375 42.88671875 51.171875 C42.80292969 50.1921875 42.71914063 49.2125 42.6328125 48.203125 C42.52283936 46.85202637 42.52283936 46.85202637 42.41064453 45.47363281 C41.87824994 42.2666043 40.93284484 39.93284484 38.625 37.625 C37 36 37 36 35.4375 33.0625 C31.44834963 28.05049056 25.19199595 26.22269485 19 25 C16.50235996 24.80107292 14.00175211 24.63789185 11.5 24.5 C7.45029422 24.27678787 3.94266001 23.985665 0 23 C0 15.41 0 7.82 0 0 Z " fill="#FDF9F8" transform="translate(882,489)"/>
<path d="M0 0 C0.64832794 -0.00414413 1.29665588 -0.00828827 1.96463013 -0.01255798 C4.07152967 -0.02223734 6.17823787 -0.02221442 8.28515625 -0.01953125 C9.35937332 -0.01962189 9.35937332 -0.01962189 10.45529175 -0.01971436 C19.47239067 -0.00886452 28.42707606 0.17881347 37.41015625 1.04296875 C38.63690063 1.16055542 38.63690063 1.16055542 39.88842773 1.28051758 C44.69533131 1.81111345 48.55026002 2.79728411 53.34765625 4.16796875 C53.34765625 11.75796875 53.34765625 19.34796875 53.34765625 27.16796875 C42.34765625 26.16796875 42.34765625 26.16796875 36.9375 25.12109375 C30.90850859 23.96945257 25.03367772 23.87269318 18.91015625 23.91796875 C17.86794922 23.91023437 16.82574219 23.9025 15.75195312 23.89453125 C5.80696348 23.91919334 -4.01133997 24.00432486 -12.03125 30.4375 C-16.23405871 34.92387171 -17.20705686 38.87181513 -17.15234375 44.91796875 C-17.14807373 45.62735596 -17.14380371 46.33674316 -17.1394043 47.06762695 C-16.88567983 54.90977499 -14.14285322 59.30388286 -9.15234375 65.04296875 C-6.76307243 67.07384937 -4.35321823 68.59245864 -1.65234375 70.16796875 C-1.32234375 70.82796875 -0.99234375 71.48796875 -0.65234375 72.16796875 C1.93803711 73.17331171 1.93803711 73.17331171 5.09765625 74.04296875 C6.27714844 74.39359375 7.45664062 74.74421875 8.671875 75.10546875 C11.00554608 75.78002617 13.34127574 76.44753344 15.6796875 77.10546875 C31.06225526 81.56957548 44.18595835 87.93148811 52.34765625 102.16796875 C56.58227708 110.47482082 56.81400987 117.9866318 56.34765625 127.16796875 C56.32703125 128.45832031 56.30640625 129.74867188 56.28515625 131.078125 C55.83792459 145.04013834 50.53725569 151.98159079 40.6875 161.26953125 C30.60613125 170.32300696 17.56344324 172.63895051 4.3984375 172.6015625 C2.75224678 172.60942528 2.75224678 172.60942528 1.07279968 172.6174469 C-1.22888345 172.62382559 -3.53059937 172.62258452 -5.83227539 172.61401367 C-9.34124703 172.60546533 -12.84860885 172.63438703 -16.35742188 172.66601562 C-18.60546827 172.66762706 -20.85351752 172.66705122 -23.1015625 172.6640625 C-24.14132736 172.67529648 -25.18109222 172.68653046 -26.25236511 172.69810486 C-27.23731461 172.68872391 -28.2222641 172.67934296 -29.23706055 172.66967773 C-30.51966011 172.66942848 -30.51966011 172.66942848 -31.82817078 172.66917419 C-34.65234375 172.16796875 -34.65234375 172.16796875 -42.65234375 168.16796875 C-42.65234375 160.57796875 -42.65234375 152.98796875 -42.65234375 145.16796875 C-39.35234375 146.15796875 -36.05234375 147.14796875 -32.65234375 148.16796875 C-25.2187245 149.36265756 -17.74055846 149.41943924 -10.22314453 149.46313477 C-8.84250673 149.47469163 -7.46191488 149.49520202 -6.08154297 149.5246582 C2.1843911 149.70017448 9.07903718 149.4730793 16.34765625 145.16796875 C17.44078125 144.59046875 18.53390625 144.01296875 19.66015625 143.41796875 C24.30454244 139.52964542 26.00789595 135.86382388 26.765625 129.8515625 C27.13047446 120.71060448 25.55754493 115.16911362 19.7265625 108.2421875 C14.01157168 102.50261607 6.92686081 100.51986625 -0.65234375 98.16796875 C-16.95678325 93.07955937 -32.79688469 86.87412764 -41.40234375 71.0078125 C-47.16147121 57.92379481 -49.36687846 42.9765852 -44.71484375 29.23046875 C-38.6366329 15.55449435 -26.81931242 7.49306709 -13.31640625 2.11328125 C-8.72521175 0.48414772 -4.90319286 0.03097595 0 0 Z " fill="#FDF7F7" transform="translate(388.65234375,488.83203125)"/>
<path d="M0 0 C9.24 0 18.48 0 28 0 C28 23.1 28 46.2 28 70 C40.21 70 52.42 70 65 70 C65 78.91 65 87.82 65 97 C52.79 97 40.58 97 28 97 C28 144.85 28 192.7 28 242 C18.76 242 9.52 242 0 242 C0 162.14 0 82.28 0 0 Z " fill="#FEFEFE" transform="translate(477,419)"/>
<path d="M0 0 C2.30350488 0.03693092 4.60540664 0.04101461 6.90917969 0.04052734 C8.40658917 0.05034911 9.903988 0.062002 11.40136719 0.07568359 C12.07344208 0.07790924 12.74551697 0.08013489 13.43795776 0.08242798 C18.83578891 0.18812386 22.89682738 1.18665391 28.40917969 2.41162109 C28.40917969 9.34162109 28.40917969 16.27162109 28.40917969 23.41162109 C26.82105469 23.24662109 25.23292969 23.08162109 23.59667969 22.91162109 C9.32627951 21.78279369 -2.9479484 21.72513837 -16.59082031 26.41162109 C-18.31996071 26.80756918 -20.04912524 27.20341188 -21.77832031 27.59912109 C-28.17831435 29.52543509 -32.7442009 33.98191518 -37.59082031 38.41162109 C-38.2753125 39.00330078 -38.95980469 39.59498047 -39.66503906 40.20458984 C-44.46923429 44.59193516 -47.02687377 49.48773152 -49.59082031 55.41162109 C-50.04714844 56.45705078 -50.50347656 57.50248047 -50.97363281 58.57958984 C-58.71515418 76.7389871 -57.58462305 97.41800512 -50.30566406 115.62646484 C-46.94044252 123.05994865 -42.37345619 128.70833528 -36.59082031 134.41162109 C-35.95273438 135.06001953 -35.31464844 135.70841797 -34.65722656 136.37646484 C-22.56881268 147.86171462 -8.41190158 149.7754475 7.59667969 149.59912109 C8.72009766 149.59847656 9.84351563 149.59783203 11.00097656 149.59716797 C16.9683072 149.56563187 22.43055988 149.15894857 28.40917969 148.41162109 C28.40917969 155.34162109 28.40917969 162.27162109 28.40917969 169.41162109 C18.86450442 171.08328738 9.59555201 171.89193776 -0.09082031 171.91162109 C-0.78714569 171.91363525 -1.48347107 171.91564941 -2.20089722 171.91772461 C-21.89179863 171.8794598 -42.53956709 166.99046911 -57.59082031 153.41162109 C-57.92082031 152.42162109 -58.25082031 151.43162109 -58.59082031 150.41162109 C-60.06827683 149.19048744 -61.59823805 148.03222999 -63.15332031 146.91162109 C-73.79104774 138.54691235 -78.68383333 127.63930218 -83.59082031 115.41162109 C-84.14769531 114.09484375 -84.14769531 114.09484375 -84.71582031 112.75146484 C-90.25870486 97.92919769 -88.74352003 79.36134008 -84.59082031 64.41162109 C-84.38585937 63.55826172 -84.18089844 62.70490234 -83.96972656 61.82568359 C-80.89359931 50.01794048 -74.7634728 39.39287524 -66.59082031 30.41162109 C-65.77871094 29.50669922 -64.96660156 28.60177734 -64.12988281 27.66943359 C-57.32864688 20.46929819 -50.08184876 15.40290303 -41.59082031 10.41162109 C-40.20056641 9.54537109 -40.20056641 9.54537109 -38.78222656 8.66162109 C-26.5507058 1.3917722 -13.92472884 -0.23058153 0 0 Z " fill="#FDF7F6" transform="translate(133.5908203125,489.58837890625)"/>
<path d="M0 0 C9.24 0 18.48 0 28 0 C28 79.86 28 159.72 28 242 C18.76 242 9.52 242 0 242 C0 162.14 0 82.28 0 0 Z " fill="#FDFDFC" transform="translate(706,419)"/>
<path d="M0 0 C1.02480469 -0.00322266 2.04960938 -0.00644531 3.10546875 -0.00976562 C16.5612471 0.08427095 26.57395375 2.71955662 36.4375 12.25 C48.01181518 24.59283107 50.125 36.18266212 50.125 53.3125 C24.715 53.3125 -0.695 53.3125 -26.875 53.3125 C-21.52161584 68.27442932 -21.52161584 68.27442932 -11.875 79.3125 C-10.71677734 80.37210938 -10.71677734 80.37210938 -9.53515625 81.453125 C-3.31478059 85.80099404 3.2825525 85.57376972 10.5625 85.4375 C11.48482422 85.42847656 12.40714844 85.41945313 13.35742188 85.41015625 C15.61339498 85.38677829 17.86923283 85.3509142 20.125 85.3125 C20.125 89.9325 20.125 94.5525 20.125 99.3125 C10.52064047 104.0166761 -1.00866128 103.6640413 -11.11328125 100.4921875 C-21.62016919 96.00409675 -31.45637375 89.38916805 -37.5625 79.625 C-37.95115234 79.01213135 -38.33980469 78.3992627 -38.74023438 77.76782227 C-41.76274344 72.83951053 -43.73546697 67.99999075 -44.875 62.3125 C-45.05804688 61.56871094 -45.24109375 60.82492187 -45.4296875 60.05859375 C-46.03108816 56.34995632 -46.01964377 52.68291253 -46 48.9375 C-46.00386719 48.20789063 -46.00773437 47.47828125 -46.01171875 46.7265625 C-45.99796132 39.02240114 -45.08285004 32.77985564 -41.3125 25.9375 C-40.95534912 25.28338135 -40.59819824 24.6292627 -40.23022461 23.95532227 C-34.18489617 13.2291407 -25.97629846 5.15232837 -14.23925781 0.91015625 C-9.55130893 -0.27490146 -4.8054707 -0.07499174 0 0 Z " fill="#FDF5F5" transform="translate(124.875,338.6875)"/>
<path d="M0 0 C9.24 0 18.48 0 28 0 C28 56.76 28 113.52 28 172 C18.76 172 9.52 172 0 172 C0 115.24 0 58.48 0 0 Z " fill="#FDFDFD" transform="translate(766,489)"/>
<path d="M0 0 C0 17.82 0 35.64 0 54 C-13.17623248 59.27049299 -26.37567872 60.41528169 -40.4375 60.5 C-41.11841705 60.51017151 -41.79933411 60.52034302 -42.50088501 60.53082275 C-51.78245956 60.6422972 -62.50191078 60.54696813 -70.02661133 54.32397461 C-71.60412315 52.64315093 -72.80235994 50.96665105 -74 49 C-74.61875 47.989375 -75.2375 46.97875 -75.875 45.9375 C-78.58737345 38.72615982 -77.97556595 29.71722039 -75.4375 22.5625 C-71.22534206 13.56178356 -64.2476053 9.34173475 -55.26953125 5.9765625 C-37.01113123 -0.17899441 -19.46782892 0 0 0 Z " fill="#CB0304" transform="translate(926,577)"/>
<path d="M0 0 C0 17.49 0 34.98 0 53 C-19.22968945 60.21113354 -45.62645086 62.8697629 -65.3125 55.8125 C-70.83617348 52.08723184 -75.50716135 46.61461026 -77 40 C-78.27358479 30.41595283 -76.63632737 22.89991266 -71 15 C-64.39794092 7.72080666 -56.28845514 4.61702471 -47 2 C-45.90558594 1.6803125 -44.81117188 1.360625 -43.68359375 1.03125 C-29.80354296 -2.37954746 -14.04344624 -2.34057437 0 0 Z " fill="#CA0101" transform="translate(285,578)"/>
<path d="M0 0 C0 17.82 0 35.64 0 54 C-20.80989533 60.93663178 -49.52809312 65.22311033 -70 55 C-74.77606604 51.02764333 -76.72275869 44.90203243 -77.30078125 38.8515625 C-77.33765251 28.69967582 -76.03539271 22.38085833 -69.0078125 14.8828125 C-50.44866488 -2.52090181 -23.41108774 0 0 0 Z " fill="#CB0403" transform="translate(644,577)"/>
<path d="M0 0 C9.51884069 7.56965462 15.38004936 16.38757035 17.1875 28.5 C18.89697545 44.68303422 19.18060532 61.23415001 9.875 75.25 C1.97739891 84.70599061 -6.75704766 91.46550077 -19.125 93.25 C-30.07100626 94.10258404 -41.24775165 94.65211965 -51.125 89.25 C-52.06601562 88.75242187 -53.00703125 88.25484375 -53.9765625 87.7421875 C-65.45178031 81.09212866 -71.73670588 70.80541942 -75.9375 58.4375 C-79.44257729 44.39716182 -78.52924692 27.87919583 -71.5 15.1875 C-64.17003339 3.83146799 -55.11245875 -4.77313589 -41.8125 -8.28515625 C-27.48953015 -10.7625304 -11.9438641 -8.40409558 0 0 Z M-46.125 8.25 C-47.09373047 8.86681641 -47.09373047 8.86681641 -48.08203125 9.49609375 C-53.82242196 13.71071612 -56.34851703 19.86322958 -59.125 26.25 C-59.50269531 26.98863281 -59.88039063 27.72726562 -60.26953125 28.48828125 C-63.21856927 38.00869166 -62.5208059 51.93982691 -58.44921875 60.96875 C-53.8363869 68.91533938 -47.62162691 76.37676321 -39.375 80.6875 C-29.90399807 82.32671187 -20.87899839 81.96669753 -12.67578125 76.66796875 C-6.5001511 72.10337256 -3.60792136 67.55055632 -0.5 60.5625 C1.84968354 55.30063291 1.84968354 55.30063291 2.875 53.25 C3.17220153 49.59011687 3.15321739 45.9205249 3.1875 42.25 C3.21650391 41.24582031 3.24550781 40.24164063 3.27539062 39.20703125 C3.36259885 28.83596123 0.20156363 19.76322767 -7.125 12.25 C-15.43836543 5.48454852 -21.76967577 2.70199544 -32.546875 2.87109375 C-37.89498391 3.43743279 -41.70663134 5.27533528 -46.125 8.25 Z " fill="#FCF1F0" transform="translate(415.125,346.75)"/>
<path d="M0 0 C5.28 0 10.56 0 16 0 C16.62788389 10.71205712 17.07551241 21.40635313 17.2109375 32.13671875 C17.2252179 33.16338654 17.23949829 34.19005432 17.25421143 35.24783325 C17.31169451 39.46913949 17.36684542 43.69030098 17.40136719 47.91186523 C17.42904001 51.04962956 17.47481163 54.18671827 17.5234375 57.32421875 C17.52669037 58.2649675 17.52994324 59.20571625 17.53329468 60.17497253 C17.68250832 68.24307677 18.99549833 76.16229005 25 82 C31.31020646 86.65280613 36.88311487 86.60734143 44.5625 86.5 C46.22829102 86.52320313 46.22829102 86.52320313 47.92773438 86.546875 C54.03796042 86.51762197 58.35423033 86.41082862 63 82 C64.67001935 79.68735693 64.67001935 79.68735693 65.75 77.125 C66.1521875 76.24457031 66.554375 75.36414063 66.96875 74.45703125 C71.02422756 64.79454872 71.17836851 55.77113856 71.31640625 45.41015625 C71.3475779 43.46066322 71.3475779 43.46066322 71.37937927 41.4717865 C71.43424033 38.03763825 71.4838062 34.60343375 71.53222656 31.16918945 C71.5827064 27.6563626 71.63825339 24.14361616 71.69335938 20.63085938 C71.80050013 13.75397472 71.90157156 6.87701482 72 0 C77.28 0 82.56 0 88 0 C88.09073888 9.06725698 88.16396679 18.13420735 88.20724869 27.20181751 C88.22803258 31.41328248 88.25617946 35.62441796 88.30175781 39.83569336 C88.34554724 43.90763732 88.36920609 47.97926641 88.37950897 52.05142784 C88.3868415 53.59702186 88.40115859 55.14260065 88.42292023 56.68805885 C88.59632864 69.52564735 86.86318028 79.6784501 78.26953125 89.70703125 C68.28545893 99.79420931 56.87911176 103.18269278 42.9375 103.3125 C31.50520155 103.33479242 21.58601293 100.86880421 13 93 C12.113125 92.195625 11.22625 91.39125 10.3125 90.5625 C0.4025619 79.58121724 -0.44361053 68.80668014 -0.29296875 54.4921875 C-0.28736233 52.91464647 -0.28309719 51.33710016 -0.28010559 49.759552 C-0.26873898 45.63970104 -0.23934404 41.52017548 -0.20599365 37.40045166 C-0.17511461 33.18367919 -0.16156243 28.96685333 -0.14648438 24.75 C-0.11446494 16.4998352 -0.06176569 8.24999577 0 0 Z " fill="#FDF7F7" transform="translate(187,337)"/>
<path d="M0 0 C0 3.96 0 7.92 0 12 C-9.61887477 17.00181488 -9.61887477 17.00181488 -15 18 C-22.18594471 22.34938759 -26.82340874 30.41091475 -29.35668945 38.23368835 C-30.63957175 43.75023439 -30.48325978 49.3655988 -30.51171875 55.00390625 C-30.52966995 56.32293442 -30.54762115 57.64196259 -30.56611633 59.0009613 C-30.61327391 62.4778251 -30.64330299 65.95462559 -30.66955566 69.43170166 C-30.69953592 72.99170429 -30.74600536 76.55148942 -30.79101562 80.11132812 C-30.87665803 87.07410858 -30.94264775 94.03692957 -31 101 C-36.94 101 -42.88 101 -49 101 C-49.06803972 93.33244639 -49.12296741 85.66500686 -49.15543652 77.99722385 C-49.17102777 74.43594114 -49.19214455 70.87487742 -49.22631836 67.3137207 C-49.26544385 63.21042901 -49.27976317 59.10736386 -49.29296875 55.00390625 C-49.30845261 53.73793106 -49.32393646 52.47195587 -49.33988953 51.1676178 C-49.34240676 37.83046461 -44.96371488 25.68856681 -35.828125 15.6875 C-25.30847673 5.97705545 -14.45588887 -0.51628175 0 0 Z " fill="#FCF0F1" transform="translate(336,339)"/>
<path d="M0 0 C5.6982956 4.44841038 9.28827284 9.33367072 12 16 C12 16.99 12 17.98 12 19 C-6.15 19 -24.3 19 -43 19 C-41.84631985 9.77055876 -39.87338653 7.24006096 -33.2265625 1.45703125 C-23.52030612 -6.03127967 -10.42296194 -6.15352313 0 0 Z " fill="#CA0405" transform="translate(143,357)"/>
<path d="M0 0 C9.24 0 18.48 0 28 0 C28 79.86 28 159.72 28 242 C18.76 242 9.52 242 0 242 C0 162.14 0 82.28 0 0 Z M2 2 C2 80.54 2 159.08 2 240 C10.25 240 18.5 240 27 240 C27 161.13 27 82.26 27 1 C18.66000266 1 10.32152556 1.44523163 2 2 Z " fill="#F8CFCF" transform="translate(706,419)"/>
<path d="M0 0 C0.70705078 0.00644531 1.41410156 0.01289063 2.14257812 0.01953125 C8.30859797 0.10849096 14.43018125 0.53710256 20.5625 1.1875 C21.69710134 4.59130402 21.64480201 7.09117012 21.58422852 10.6784668 C21.57462097 11.3323941 21.56501343 11.98632141 21.55511475 12.6600647 C21.52216373 14.81906026 21.4818168 16.977851 21.44140625 19.13671875 C21.41710131 20.63458028 21.39325794 22.13244937 21.36985779 23.63032532 C21.30705402 27.57102063 21.23797692 31.51158203 21.16760254 35.45214844 C21.08445027 40.18110604 21.00907302 44.91019316 20.93239594 49.63925934 C20.81506056 56.82212323 20.68783656 64.00475118 20.5625 71.1875 C32.4425 71.1875 44.3225 71.1875 56.5625 71.1875 C56.5625 71.8475 56.5625 72.5075 56.5625 73.1875 C44.3525 73.1875 32.1425 73.1875 19.5625 73.1875 C19.5625 50.0875 19.5625 26.9875 19.5625 3.1875 C10.3225 3.1875 1.0825 3.1875 -8.4375 3.1875 C-8.4375 82.7175 -8.4375 162.2475 -8.4375 244.1875 C-9.0975 244.1875 -9.7575 244.1875 -10.4375 244.1875 C-10.50588242 213.39218723 -10.55900037 182.59689176 -10.59069599 151.80152125 C-10.59444828 148.16895024 -10.59833123 144.53637938 -10.60229492 140.90380859 C-10.60308185 140.18060444 -10.60386878 139.45740029 -10.60467956 138.71228085 C-10.61774688 126.98979616 -10.64140797 115.26735543 -10.66895839 103.54489686 C-10.69697579 91.52381803 -10.71366848 79.50276228 -10.71976548 67.48165214 C-10.72351875 60.72651765 -10.73257406 53.97147499 -10.75469017 47.21637344 C-10.77497191 40.86516646 -10.7813507 34.51410097 -10.77682304 28.16286469 C-10.77765198 25.82548887 -10.78366682 23.48810857 -10.79511642 21.15076065 C-10.80993043 17.97208515 -10.80649429 14.79395161 -10.79826355 11.61526489 C-10.80700207 10.67948109 -10.8157406 9.74369728 -10.82474393 8.77955639 C-10.81877078 7.93259257 -10.81279764 7.08562874 -10.80664349 6.21299934 C-10.80778265 5.47862023 -10.80892181 4.74424111 -10.81009549 3.98760808 C-9.76265958 -1.07283384 -4.01613007 -0.07499776 0 0 Z " fill="#B21514" transform="translate(485.4375,415.8125)"/>
<path d="M0 0 C9.24 0 18.48 0 28 0 C28 23.1 28 46.2 28 70 C27.67 70 27.34 70 27 70 C27 47.23 27 24.46 27 1 C18.42 1 9.84 1 1 1 C1 79.87 1 158.74 1 240 C9.25 240 17.5 240 26 240 C26 192.81 26 145.62 26 97 C26.66 97 27.32 97 28 97 C28 144.85 28 192.7 28 242 C18.76 242 9.52 242 0 242 C0 162.14 0 82.28 0 0 Z " fill="#FECECE" transform="translate(477,419)"/>
<path d="M0 0 C0.33 0 0.66 0 1 0 C1.33 56.1 1.66 112.2 2 170 C10.25 170 18.5 170 27 170 C27 115.55 27 61.1 27 5 C27.33 5 27.66 5 28 5 C28 60.11 28 115.22 28 172 C18.76 172 9.52 172 0 172 C0 115.24 0 58.48 0 0 Z " fill="#F5C3C3" transform="translate(766,489)"/>
<path d="M0 0 C5.28 0 10.56 0 16 0 C16.888382 15.41315515 17.28926281 30.81488708 17.5625 46.25 C17.6058354 48.56771367 17.64945359 50.88542207 17.69335938 53.203125 C17.79882112 58.802027 17.90083762 64.40098306 18 70 C15 68 15 68 14 65 C13.91088827 62.96033519 13.88239955 60.91782714 13.88647461 58.8762207 C13.88655014 57.61513992 13.88662567 56.35405914 13.88670349 55.05476379 C13.89181011 53.67843588 13.89702611 52.30210837 13.90234375 50.92578125 C13.90420914 49.51759389 13.90563247 48.10940589 13.90663147 46.70121765 C13.91044712 42.9973267 13.92026928 39.29347505 13.93133545 35.58959961 C13.94157003 31.80908744 13.94613348 28.02856891 13.95117188 24.24804688 C13.96189241 16.83201127 13.9794815 9.41601615 14 2 C10.04 2 6.08 2 2 2 C2.00523682 2.95326172 2.01047363 3.90652344 2.01586914 4.88867188 C2.1259843 26.94980021 1.86102118 48.95465174 1 71 C0.67 71 0.34 71 0 71 C0 47.57 0 24.14 0 0 Z " fill="#FCD1D3" transform="translate(187,337)"/>
<path d="M0 0 C5.28 0 10.56 0 16 0 C16.06789328 9.13634644 16.1228837 18.27252414 16.15543652 27.4090662 C16.17106363 31.65195687 16.19224757 35.89466534 16.22631836 40.13745117 C16.2590177 44.23529783 16.27687523 48.33296971 16.28463173 52.43093681 C16.29015632 53.99097887 16.30094447 55.55101183 16.31719017 57.11097908 C16.33910575 59.3034411 16.34196114 61.49518945 16.34057617 63.68774414 C16.34723801 64.93350723 16.35389984 66.17927032 16.36076355 67.46278381 C15.94003294 71.58796533 14.80189866 74.29194771 13 78 C12.67 78 12.34 78 12 78 C12.66 52.92 13.32 27.84 14 2 C9.71 2 5.42 2 1 2 C1 13.88 1 25.76 1 38 C0.67 38 0.34 38 0 38 C0 25.46 0 12.92 0 0 Z " fill="#FBC6C7" transform="translate(259,337)"/>
<path d="M0 0 C0.66 0.33 1.32 0.66 2 1 C2 36.64 2 72.28 2 109 C0.515 109.495 0.515 109.495 -1 110 C-1.33 110.99 -1.66 111.98 -2 113 C-3.77734375 113.984375 -3.77734375 113.984375 -5.9375 114.75 C-7.00291016 115.14445313 -7.00291016 115.14445313 -8.08984375 115.546875 C-10 116 -10 116 -12 115 C-12 114.34 -12 113.68 -12 113 C-8.37 111.35 -4.74 109.7 -1 108 C-0.67 72.36 -0.34 36.72 0 0 Z " fill="#B71E20" transform="translate(671,535)"/>
<path d="M0 0 C0.66 0.33 1.32 0.66 2 1 C2 1.99 2 2.98 2 4 C0.13671875 5.82421875 0.13671875 5.82421875 -2.3125 7.6875 C-3.11300781 8.31011719 -3.91351563 8.93273437 -4.73828125 9.57421875 C-7 11 -7 11 -10 11 C-10.0825 11.763125 -10.165 12.52625 -10.25 13.3125 C-10.89879782 16.50242262 -11.76849695 18.91069401 -13.00878906 21.8840332 C-15.42777128 28.46682948 -15.6021924 34.58606608 -15.609375 41.54296875 C-15.62591125 42.79257889 -15.64244751 44.04218903 -15.65948486 45.32966614 C-15.69952075 48.61264758 -15.72305661 51.89517278 -15.73822021 55.17834473 C-15.75795431 58.54418314 -15.79990431 61.90974207 -15.83984375 65.27539062 C-15.91343928 71.85019134 -15.9652438 78.4248853 -16 85 C-16.66 85 -17.32 85 -18 85 C-18.06980979 77.33247896 -18.12296748 69.66499128 -18.15543652 61.99722385 C-18.17102777 58.43594114 -18.19214455 54.87487742 -18.22631836 51.3137207 C-18.26544385 47.21042901 -18.27976317 43.10736386 -18.29296875 39.00390625 C-18.30845261 37.73793106 -18.32393646 36.47195587 -18.33988953 35.1676178 C-18.3422585 22.61601551 -15.27252562 14.52548114 -7 5 C-4.73618222 3.02979768 -2.57878097 1.55801351 0 0 Z " fill="#B80C10" transform="translate(323,355)"/>
<path d="M0 0 C0.33 0 0.66 0 1 0 C1.08226668 3.04386724 0.97608217 5.07175348 0 8 C24.255 8.99 24.255 8.99 49 10 C48.505 7.03 48.505 7.03 48 4 C50 6 50 6 51 12 C32.85 12 14.7 12 -4 12 C-2.85714286 2.85714286 -2.85714286 2.85714286 0 0 Z " fill="#C82E2F" transform="translate(104,364)"/>
<path d="M0 0 C4.37504146 -0.02700643 8.74991562 -0.04684275 13.125 -0.0625 C14.3625 -0.07087891 15.6 -0.07925781 16.875 -0.08789062 C18.07382812 -0.09111328 19.27265625 -0.09433594 20.5078125 -0.09765625 C21.60754395 -0.10289307 22.70727539 -0.10812988 23.84033203 -0.11352539 C26.97618105 -0.0008558 29.92059383 0.41373624 33 1 C33 1.33 33 1.66 33 2 C22.77 2 12.54 2 2 2 C2 8.6 2 15.2 2 22 C4.15208984 21.94779297 4.15208984 21.94779297 6.34765625 21.89453125 C8.2525924 21.86637948 10.15754128 21.83908082 12.0625 21.8125 C13.00544922 21.78736328 13.94839844 21.76222656 14.91992188 21.73632812 C20.76642736 21.67521483 24.81287544 22.25895359 30 25 C29.67 25.66 29.34 26.32 29 27 C28.45214844 26.86722656 27.90429688 26.73445312 27.33984375 26.59765625 C20.6821421 25.11455848 14.11381871 24.58786152 7.3203125 24.24609375 C4 24 4 24 0 23 C0 15.41 0 7.82 0 0 Z " fill="#F7CACA" transform="translate(882,489)"/>
<path d="M0 0 C3.58004377 -0.18359199 6.649584 0.10217508 10.09350586 0.99560547 C15.12991629 2.14822063 19.91819248 2.25623881 25.06640625 2.1953125 C25.98590561 2.1924826 26.90540497 2.18965271 27.85276794 2.18673706 C30.75615093 2.17564584 33.65921209 2.15056263 36.5625 2.125 C38.54491738 2.11495588 40.52733966 2.10583255 42.50976562 2.09765625 C47.33996555 2.07574286 52.16992843 2.04129081 57 2 C56 4 56 4 53.36938477 5.10839844 C49.79889832 6.05321523 46.77895589 6.25859955 43.08984375 6.265625 C42.4410878 6.26753845 41.79233185 6.2694519 41.12391663 6.27142334 C39.75488903 6.27277766 38.38584825 6.26913405 37.0168457 6.26074219 C34.96730055 6.25015395 32.91865666 6.26059871 30.86914062 6.2734375 C8.42891968 6.29817809 8.42891968 6.29817809 0 1 C0 0.67 0 0.34 0 0 Z " fill="#B91E1D" transform="translate(346,633)"/>
<path d="M0 0 C-2.43246388 2.43246388 -3.71228189 2.50177433 -7.0625 3.0625 C-7.96097656 3.21847656 -8.85945312 3.37445312 -9.78515625 3.53515625 C-17.30990883 4.62318244 -24.77978299 5.1982722 -32.375 5.5 C-38.99080441 5.76604645 -45.49345913 6.13728054 -52.0390625 7.20703125 C-52.68617188 7.13871094 -53.33328125 7.07039062 -54 7 C-55.62255859 4.98706055 -55.62255859 4.98706055 -57 3 C-56.20940186 3.01047363 -55.41880371 3.02094727 -54.60424805 3.03173828 C-50.96536536 3.07373254 -47.32653394 3.09946292 -43.6875 3.125 C-42.44419922 3.14175781 -41.20089844 3.15851562 -39.91992188 3.17578125 C-33.22273287 3.2109371 -26.95376728 2.8974502 -20.39648438 1.49414062 C-13.65988216 0.10509388 -6.8558171 -0.12695958 0 0 Z " fill="#BB2528" transform="translate(638,657)"/>
<path d="M0 0 C0 0.33 0 0.66 0 1 C-1.12277344 1.03738281 -2.24554688 1.07476563 -3.40234375 1.11328125 C-13.9312448 1.5174765 -13.9312448 1.5174765 -24.03125 4.30078125 C-30.32371669 6.53560573 -37.42085996 6.10443079 -44 6 C-44.33 5.34 -44.66 4.68 -45 4 C-29.91259896 -0.07178052 -15.57280552 -0.47405801 0 0 Z " fill="#C74545" transform="translate(279,577)"/>
<path d="M0 0 C4.39249301 -0.02494208 8.78494717 -0.04297329 13.17749023 -0.05493164 C14.66805745 -0.05992328 16.15861986 -0.06671894 17.64916992 -0.07543945 C25.49484991 -0.12015168 33.21373172 -0.1148321 41 1 C41 1.33 41 1.66 41 2 C34.80403846 3.47949985 28.50135233 3.22345135 22.1706543 3.24023438 C19.94087035 3.24998526 17.71199173 3.28106648 15.48242188 3.3125 C14.05990127 3.31902684 12.63737413 3.32427856 11.21484375 3.328125 C9.28306274 3.34214355 9.28306274 3.34214355 7.31225586 3.35644531 C3.84541951 2.98336497 2.48383459 2.37226756 0 0 Z " fill="#F9CBCA" transform="translate(382,489)"/>
<path d="M0 0 C1.8253125 0.0309375 1.8253125 0.0309375 3.6875 0.0625 C3.3575 1.0525 3.0275 2.0425 2.6875 3.0625 C-2.26592266 4.05800706 -6.96760691 4.19347403 -11.9921875 4.16015625 C-12.80495148 4.1587413 -13.61771545 4.15732635 -14.45510864 4.15586853 C-17.03261101 4.15030335 -19.6100242 4.1377574 -22.1875 4.125 C-23.94270707 4.1199805 -25.69791552 4.11541838 -27.453125 4.11132812 C-31.73961732 4.10034534 -36.02604357 4.08310492 -40.3125 4.0625 C-40.6425 3.4025 -40.9725 2.7425 -41.3125 2.0625 C-39.89771362 2.02491577 -39.89771362 2.02491577 -38.4543457 1.98657227 C-34.94121337 1.89120191 -31.42823292 1.79198275 -27.9152832 1.69018555 C-26.39742245 1.64698452 -24.87951774 1.60529952 -23.36157227 1.56518555 C-21.17450741 1.50712188 -18.98766082 1.44353344 -16.80078125 1.37890625 C-15.48634033 1.34224854 -14.17189941 1.30559082 -12.81762695 1.26782227 C-8.46285324 1.01272965 -4.36714303 -0.07401937 0 0 Z " fill="#B51514" transform="translate(158.3125,658.9375)"/>
<path d="M0 0 C3 2 3 2 3.68359375 5.25 C4.24555041 11.48081769 4.10539479 17.75055883 4.0625 24 C4.05798828 25.25167969 4.05347656 26.50335938 4.04882812 27.79296875 C4.03711415 30.86202941 4.02071073 33.93098907 4 37 C2.68 37.66 1.36 38.32 0 39 C0.0721875 38.36835938 0.144375 37.73671875 0.21875 37.0859375 C1.50825862 24.65650715 1.05733651 12.42370398 0 0 Z " fill="#B31112" transform="translate(431,369)"/>
<path d="M0 0 C0 0.66 0 1.32 0 2 C-7.25297835 5.41900348 -13.81749946 5.4187768 -21.75 5.3125 C-22.96816406 5.31572266 -24.18632813 5.31894531 -25.44140625 5.32226562 C-35.25482373 5.26275758 -35.25482373 5.26275758 -39 3 C-38.1121582 2.94465088 -37.22431641 2.88930176 -36.30957031 2.83227539 C-33.00696081 2.62461982 -29.70459768 2.4136469 -26.40234375 2.20043945 C-24.97469374 2.10894419 -23.54695897 2.01876131 -22.11914062 1.92993164 C-20.06356345 1.80181593 -18.00834008 1.66894054 -15.953125 1.53515625 C-14.09929199 1.41732788 -14.09929199 1.41732788 -12.20800781 1.29711914 C-7.98886111 0.90635038 -4.27158312 -0.11865509 0 0 Z " fill="#F8C9C6" transform="translate(631,634)"/>
<path d="M0 0 C0 0.66 0 1.32 0 2 C-3.82989106 3.80230168 -6.78121808 4.19622241 -11 4 C-11 4.66 -11 5.32 -11 6 C-12.50978679 7.22067868 -14.02383667 8.43827273 -15.58984375 9.5859375 C-18.98369126 12.98918625 -18.31824156 18.71720404 -18.5625 23.25 C-18.60568359 23.99507812 -18.64886719 24.74015625 -18.69335938 25.5078125 C-18.79896725 27.338349 -18.89994201 29.16915176 -19 31 C-21.89821248 28.10178752 -21.36805159 25.12721488 -21.375 21.25 C-21.39949219 20.54617188 -21.42398437 19.84234375 -21.44921875 19.1171875 C-21.47798137 13.95909161 -20.37918938 11.08466927 -17 7 C-15 5.13671875 -15 5.13671875 -13 3.6875 C-12.34 3.19636719 -11.68 2.70523438 -11 2.19921875 C-7.38016637 0.02873257 -4.1602338 -0.11556205 0 0 Z " fill="#BE2829" transform="translate(392,513)"/>
<path d="M0 0 C8.91 0 17.82 0 27 0 C27 1.65 27 3.3 27 5 C26.67 4.34 26.34 3.68 26 3 C17.75 2.67 9.5 2.34 1 2 C1 10.58 1 19.16 1 28 C0.67 28 0.34 28 0 28 C0 18.76 0 9.52 0 0 Z " fill="#FDE0E1" transform="translate(767,489)"/>
<path d="M0 0 C0.66 0.33 1.32 0.66 2 1 C1.59208948 3.85537361 1.19701746 5.72499646 -0.5 8.09375 C-2.58965001 12.1424469 -2.56330596 15.81667578 -2.6875 20.3125 C-2.72166016 21.14845703 -2.75582031 21.98441406 -2.79101562 22.84570312 C-2.87305461 24.89667772 -2.9382151 26.94831538 -3 29 C-5 28 -5 28 -6 25 C-7.12072572 15.14045093 -5.09871612 8.42198644 0 0 Z " fill="#C52829" transform="translate(214,593)"/>
<path d="M0 0 C0.66 0.33 1.32 0.66 2 1 C2 1.99 2 2.98 2 4 C0.13671875 5.82421875 0.13671875 5.82421875 -2.3125 7.6875 C-3.11300781 8.31011719 -3.91351563 8.93273437 -4.73828125 9.57421875 C-7 11 -7 11 -10 11 C-10.103125 11.886875 -10.20625 12.77375 -10.3125 13.6875 C-11.02226833 17.10729287 -11.92673667 19.20906859 -14 22 C-14.99 22.33 -15.98 22.66 -17 23 C-15.49052813 14.50922072 -9.98321601 6.80457499 -3 1.8125 C-2.01 1.214375 -1.02 0.61625 0 0 Z " fill="#BD2225" transform="translate(323,355)"/>
<path d="M0 0 C1.99951172 -0.35644531 1.99951172 -0.35644531 4.4296875 -0.328125 C5.30753906 -0.32296875 6.18539062 -0.3178125 7.08984375 -0.3125 C8.00894531 -0.291875 8.92804688 -0.27125 9.875 -0.25 C10.78636719 -0.24484375 11.69773438 -0.2396875 12.63671875 -0.234375 C21.02147429 -0.1361641 21.02147429 -0.1361641 24 1 C24.33 1.99 24.66 2.98 25 4 C16.09 3.67 7.18 3.34 -2 3 C-1.34 2.01 -0.68 1.02 0 0 Z " fill="#C42C2B" transform="translate(118,336)"/>
<path d="M0 0 C-0.33 0.99 -0.66 1.98 -1 3 C-1.66 3 -2.32 3 -3 3 C-3 3.99 -3 4.98 -3 6 C-3.845625 6.165 -4.69125 6.33 -5.5625 6.5 C-9.7014621 8.30609255 -11.58126717 10.57696077 -14.38671875 14.02734375 C-17.2463117 17.52394045 -17.2463117 17.52394045 -19 19 C-19.99 19 -20.98 19 -22 19 C-18.94034393 11.88227376 -8.21763573 0 0 0 Z " fill="#C32325" transform="translate(110,518)"/>
<path d="M0 0 C4.455 0.99 4.455 0.99 9 2 C9 9.59 9 17.18 9 25 C5.37 24.67 1.74 24.34 -2 24 C-2 23.67 -2 23.34 -2 23 C0.97 23 3.94 23 7 23 C7 16.73 7 10.46 7 4 C5.35 3.67 3.7 3.34 2 3 C1.34 2.01 0.68 1.02 0 0 Z " fill="#F9CAC7" transform="translate(433,491)"/>
<path d="M0 0 C-3.89525021 4.26622642 -7.77852163 4.24017339 -13.375 4.625 C-15.33566406 4.76808594 -15.33566406 4.76808594 -17.3359375 4.9140625 C-20.4753294 4.98769429 -22.9804921 4.78110822 -26 4 C-17.71299882 -0.39266432 -9.20423555 -0.25606838 0 0 Z " fill="#BF2222" transform="translate(619,578)"/>
<path d="M0 0 C0.66 0.33 1.32 0.66 2 1 C1.34 10.57 0.68 20.14 0 30 C-0.33 30 -0.66 30 -1 30 C-2.10892344 25.54670429 -2.14891439 21.18467698 -2.125 16.625 C-2.12886719 15.89539063 -2.13273437 15.16578125 -2.13671875 14.4140625 C-2.1147557 2.1147557 -2.1147557 2.1147557 0 0 Z " fill="#F1B6B7" transform="translate(81,371)"/>
<path d="M0 0 C0.78375 0.00451172 1.5675 0.00902344 2.375 0.01367188 C4.29170014 0.02535907 6.20836048 0.04329092 8.125 0.0625 C8.785 1.7125 9.445 3.3625 10.125 5.0625 C-2.25 3.5775 -2.25 3.5775 -14.875 2.0625 C-14.875 1.7325 -14.875 1.4025 -14.875 1.0625 C-9.85891475 0.0448597 -5.08891694 -0.05606434 0 0 Z " fill="#CC3939" transform="translate(393.875,335.9375)"/>
<path d="M0 0 C0.33 0.66 0.66 1.32 1 2 C1.72445313 1.96519531 2.44890625 1.93039062 3.1953125 1.89453125 C8.93998168 1.73368051 13.01322966 1.76533816 18 5 C14.54900785 7.12368747 12.01922653 7.46375691 8 7 C5.22548537 5.84812569 2.61013838 4.48393654 0 3 C0 2.01 0 1.02 0 0 Z " fill="#F6CFCE" transform="translate(346,654)"/>
<path d="M0 0 C0 0.66 0 1.32 0 2 C-4.69566657 3.85047296 -8.88399879 4.28202654 -13.875 4.1875 C-14.57882813 4.18105469 -15.28265625 4.17460938 -16.0078125 4.16796875 C-20.74717479 4.09775598 -25.32854125 3.77857646 -30 3 C-30 2.67 -30 2.34 -30 2 C-26.04905593 1.7142614 -22.0980461 1.42945198 -18.14697266 1.14550781 C-16.80255314 1.04875896 -15.45815195 0.95175511 -14.11376953 0.85449219 C-12.18266547 0.71482562 -10.25148991 0.57614863 -8.3203125 0.4375 C-6.57645264 0.31181641 -6.57645264 0.31181641 -4.79736328 0.18359375 C-3.20050708 0.07879048 -1.60029168 0 0 0 Z " fill="#F4AEAC" transform="translate(268,635)"/>
<path d="M0 0 C0.66 0.33 1.32 0.66 2 1 C1.56429687 1.42410156 1.12859375 1.84820313 0.6796875 2.28515625 C-3.45008483 6.35235627 -7.28041129 10.55463788 -11 15 C-11.99 14.67 -12.98 14.34 -14 14 C-10.38832486 7.93238576 -5.85485653 3.90323768 0 0 Z " fill="#C31C1C" transform="translate(865,585)"/>
<path d="M0 0 C9.37877608 -0.1598655 18.65190221 0.33566818 28 1 C28 1.33 28 1.66 28 2 C23.89883381 2.45088324 19.79437661 2.85480575 15.6875 3.25 C13.93663086 3.44335938 13.93663086 3.44335938 12.15039062 3.640625 C11.03212891 3.74375 9.91386719 3.846875 8.76171875 3.953125 C7.73006592 4.05786133 6.69841309 4.16259766 5.63549805 4.27050781 C3 4 3 4 1.13989258 2.00292969 C0.76372803 1.34196289 0.38756348 0.68099609 0 0 Z " fill="#BA1615" transform="translate(581,660)"/>
<path d="M0 0 C6.65050424 -0.24991456 12.56986533 0.26044666 19 2 C18.67 2.66 18.34 3.32 18 4 C15.56212615 3.8590651 13.12482147 3.71245458 10.6875 3.5625 C9.65206055 3.50352539 9.65206055 3.50352539 8.59570312 3.44335938 C5.52838465 3.25072585 2.93031848 2.97677283 0 2 C0 1.34 0 0.68 0 0 Z " fill="#BE2728" transform="translate(616,487)"/>
<path d="M0 0 C0.66 0.33 1.32 0.66 2 1 C1.34 8.92 0.68 16.84 0 25 C-0.33 25 -0.66 25 -1 25 C-1.22282257 21.95877308 -1.42868018 18.9179572 -1.625 15.875 C-1.68945312 15.0190625 -1.75390625 14.163125 -1.8203125 13.28125 C-2.12306989 8.36144244 -1.98895393 4.6307706 0 0 Z " fill="#F8D4D4" transform="translate(289,374)"/>
<path d="M0 0 C0.33 0.99 0.66 1.98 1 3 C-2.04508232 8.29205839 -6.66938387 11.33469193 -12 14 C-9.3129633 7.95416742 -5.07578221 4.03755403 0 0 Z " fill="#FADAD9" transform="translate(308,348)"/>
<path d="M0 0 C0.33 0 0.66 0 1 0 C2.32594359 5.96674616 2.0884587 11.92583615 2 18 C1.34 18 0.68 18 0 18 C-0.33 18.66 -0.66 19.32 -1 20 C-1.10152799 13.2314676 -1.03026944 6.69675136 0 0 Z " fill="#C53F3F" transform="translate(445,608)"/>
<path d="M0 0 C7.75 0.75 7.75 0.75 10 3 C11.175625 3.33 12.35125 3.66 13.5625 4 C14.696875 4.33 15.83125 4.66 17 5 C17.33 5.66 17.66 6.32 18 7 C11.38914524 6.51030705 6.05022986 4.66557258 0 2 C0 1.34 0 0.68 0 0 Z " fill="#C22B2A" transform="translate(387,559)"/>
<path d="M0 0 C-0.33 0.99 -0.66 1.98 -1 3 C-7.435 3.495 -7.435 3.495 -14 4 C-13.67 3.01 -13.34 2.02 -13 1 C-8.59085217 -0.10228696 -4.51617599 -0.07654536 0 0 Z " fill="#BE2427" transform="translate(162,659)"/>
<path d="M0 0 C6.6 0 13.2 0 20 0 C20 0.33 20 0.66 20 1 C16.7 1 13.4 1 10 1 C10 1.66 10 2.32 10 3 C6.7 3 3.4 3 0 3 C0 2.01 0 1.02 0 0 Z " fill="#B7100F" transform="translate(888,552)"/>
<path d="M0 0 C-2.28431738 2.35800504 -4.0081024 3.88720897 -7.3359375 4.265625 C-9.56920205 4.251535 -11.77382441 4.17460201 -14 4 C-14.33 3.34 -14.66 2.68 -15 2 C-12.87707704 1.47076428 -10.75157949 0.95184623 -8.625 0.4375 C-7.44164062 0.14746094 -6.25828125 -0.14257812 -5.0390625 -0.44140625 C-2 -1 -2 -1 0 0 Z " fill="#C12828" transform="translate(249,579)"/>
<path d="M0 0 C10.55808656 1.92710706 10.55808656 1.92710706 15 4 C15 4.33 15 4.66 15 5 C8.07 4.505 8.07 4.505 1 4 C0.67 2.68 0.34 1.36 0 0 Z " fill="#FAD3D1" transform="translate(575,632)"/>
<path d="M0 0 C-0.33588318 2.51912388 -0.57354954 3.67196119 -2.625 5.25 C-5.8010373 6.25295915 -8.69228878 6.12721966 -12 6 C-9.89147648 2.83721473 -9.38053749 2.48698821 -6 1.3125 C-5.29875 1.06113281 -4.5975 0.80976562 -3.875 0.55078125 C-2 0 -2 0 0 0 Z " fill="#BE2524" transform="translate(303,648)"/>
<path d="M0 0 C-2.58447418 3.87671127 -4.62882714 3.80786195 -9 5 C-9.33 5.66 -9.66 6.32 -10 7 C-11.32 6.34 -12.64 5.68 -14 5 C-12.27373075 4.00407543 -10.54651538 3.0097194 -8.8125 2.02734375 C-7.45298486 1.25675651 -6.09984244 0.47490809 -4.75 -0.3125 C-3 -1 -3 -1 0 0 Z " fill="#C72021" transform="translate(234,583)"/>
<path d="M0 0 C0.33 0.66 0.66 1.32 1 2 C-1.09639964 5.14459946 -1.6440974 5.54088804 -5 6.75 C-6.051875 7.14445313 -6.051875 7.14445313 -7.125 7.546875 C-9 8 -9 8 -11 7 C-11 6.34 -11 5.68 -11 5 C-7.37 3.35 -3.74 1.7 0 0 Z " fill="#BE2424" transform="translate(670,643)"/>
<path d="M0 0 C0.33 0.99 0.66 1.98 1 3 C-0.43359375 5.04296875 -0.43359375 5.04296875 -2.4375 7.1875 C-3.09621094 7.90292969 -3.75492187 8.61835937 -4.43359375 9.35546875 C-5.20896484 10.16951172 -5.20896484 10.16951172 -6 11 C-7.32 10.67 -8.64 10.34 -10 10 C-6.7 6.7 -3.4 3.4 0 0 Z " fill="#BF1A1C" transform="translate(438,640)"/>
<path d="M0 0 C4.62 0.66 9.24 1.32 14 2 C11.1176825 4.8823175 9.02034924 4.93185849 5 5 C3.35 3.35 1.7 1.7 0 0 Z " fill="#FAD4D1" transform="translate(224,635)"/>
<path d="M0 0 C0.66 0.33 1.32 0.66 2 1 C1.46939601 5.51013391 -0.30886117 8.38378219 -3 12 C-3.33 12 -3.66 12 -4 12 C-3.5317879 7.22423661 -2.75668002 3.95523655 0 0 Z " fill="#BB1E21" transform="translate(214,593)"/>
<path d="M0 0 C0.66 0 1.32 0 2 0 C3.4783226 2.95664519 3.06032783 5.74229737 3 9 C1.02 9.99 1.02 9.99 -1 11 C-0.67 7.37 -0.34 3.74 0 0 Z " fill="#BE2B2E" transform="translate(432,397)"/>
<path d="M0 0 C-0.33 0.66 -0.66 1.32 -1 2 C-3.33333333 2.66666667 -5.66666667 3.33333333 -8 4 C-8.33 4.66 -8.66 5.32 -9 6 C-9.99 5.67 -10.98 5.34 -12 5 C-12 4.34 -12 3.68 -12 3 C-10.3789897 2.30314502 -8.75303934 1.61777139 -7.125 0.9375 C-6.22007813 0.55464844 -5.31515625 0.17179687 -4.3828125 -0.22265625 C-2 -1 -2 -1 0 0 Z " fill="#F5C0C0" transform="translate(109,494)"/>
<path d="M0 0 C0.66 0 1.32 0 2 0 C2.66 3.63 3.32 7.26 4 11 C3.01 11.495 3.01 11.495 2 12 C0.00214565 7.8794254 -0.17835515 4.54805635 0 0 Z " fill="#C22D31" transform="translate(341,542)"/>
<path d="M0 0 C0.66 1.32 1.32 2.64 2 4 C0.35 5.65 -1.3 7.3 -3 9 C-3.99 8.67 -4.98 8.34 -6 8 C-4.02 5.36 -2.04 2.72 0 0 Z " fill="#FBDDDD" transform="translate(92,352)"/>
<path d="M0 0 C2.33944736 0.28730055 4.6739143 0.61936779 7 1 C5.02579865 3.52259061 4.03254358 3.9929808 0.8125 4.6875 C-0.5796875 4.8421875 -0.5796875 4.8421875 -2 5 C-1.125 1.125 -1.125 1.125 0 0 Z " fill="#BD1816" transform="translate(370,336)"/>
<path d="M0 0 C1.32 0 2.64 0 4 0 C5.8125 1.8125 5.8125 1.8125 7 4 C6.67 4.99 6.34 5.98 6 7 C2.535 5.02 2.535 5.02 -1 3 C-0.67 2.01 -0.34 1.02 0 0 Z " fill="#F9D4D2" transform="translate(628,513)"/>
<path d="M0 0 C1.65 0 3.3 0 5 0 C5 0.66 5 1.32 5 2 C7.31 2 9.62 2 12 2 C12.33 2.66 12.66 3.32 13 4 C10.44855176 4.93045933 9.25993522 5.08564091 6.640625 4.22265625 C5.85171875 3.83980469 5.0628125 3.45695313 4.25 3.0625 C3.45078125 2.68222656 2.6515625 2.30195312 1.828125 1.91015625 C1.22484375 1.60980469 0.6215625 1.30945313 0 1 C0 0.67 0 0.34 0 0 Z " fill="#C02B2C" transform="translate(857,631)"/>
<path d="M0 0 C-2.54782974 2.97246802 -5.45340883 4.41535288 -9 6 C-9.66 6 -10.32 6 -11 6 C-11 5.34 -11 4.68 -11 4 C-10.34 4 -9.68 4 -9 4 C-8.67 3.01 -8.34 2.02 -8 1 C-5.29120665 -0.35439668 -2.99066732 -0.06501451 0 0 Z " fill="#C0292D" transform="translate(853,563)"/>
<path d="M0 0 C0.66 0.33 1.32 0.66 2 1 C1.53199289 5.05606165 1.12046792 8.46588679 -1 12 C-1.33 12 -1.66 12 -2 12 C-1.85962479 10.18706911 -1.71255111 8.3746557 -1.5625 6.5625 C-1.48128906 5.55316406 -1.40007812 4.54382813 -1.31640625 3.50390625 C-1 1 -1 1 0 0 Z " fill="#F7BDBE" transform="translate(273,403)"/>
<path d="M0 0 C0.66 0.33 1.32 0.66 2 1 C2 1.99 2 2.98 2 4 C0.1875 5.75 0.1875 5.75 -2 7 C-2.99 6.67 -3.98 6.34 -5 6 C-3.63016497 2.83884224 -3.0109362 2.0072908 0 0 Z " fill="#BE1416" transform="translate(323,355)"/>
<path d="M0 0 C3.05507993 1.52753997 5.44341223 2.80863905 8 5 C8 5.66 8 6.32 8 7 C6.68 7.33 5.36 7.66 4 8 C2.68 5.36 1.36 2.72 0 0 Z " fill="#CB3A3B" transform="translate(68,635)"/>
<path d="M0 0 C0.66 0.33 1.32 0.66 2 1 C0.84826645 3.46800047 -0.04783565 5.04783565 -2 7 C-2.99 7 -3.98 7 -5 7 C-3.70700306 4.11562221 -2.34058637 2.12780579 0 0 Z " fill="#C12D2D" transform="translate(93,530)"/>
<path d="M0 0 C1 2 1 2 0.44140625 4.1640625 C0.15136719 4.97617187 -0.13867188 5.78828125 -0.4375 6.625 C-0.72496094 7.44226563 -1.01242187 8.25953125 -1.30859375 9.1015625 C-1.53675781 9.72804688 -1.76492188 10.35453125 -2 11 C-2.99 10.67 -3.98 10.34 -5 10 C-3.35 6.7 -1.7 3.4 0 0 Z " fill="#F5BCBC" transform="translate(416,402)"/>
<path d="M0 0 C0.33 0.99 0.66 1.98 1 3 C-1.25 5.0625 -1.25 5.0625 -4 7 C-5.32 6.67 -6.64 6.34 -8 6 C-5.36 4.02 -2.72 2.04 0 0 Z " fill="#F9D2D4" transform="translate(103,343)"/>
<path d="M0 0 C1.093125 0.0825 2.18625 0.165 3.3125 0.25 C2.9825 0.91 2.6525 1.57 2.3125 2.25 C0.24609375 2.8828125 0.24609375 2.8828125 -2.25 3.375 C-3.48943359 3.62636719 -3.48943359 3.62636719 -4.75390625 3.8828125 C-5.39199219 4.00398437 -6.03007812 4.12515625 -6.6875 4.25 C-4.79150483 0.68106792 -4.16790733 0.28256999 0 0 Z " fill="#BC2C2C" transform="translate(399.6875,634.75)"/>
<path d="M0 0 C1.485 0.99 1.485 0.99 3 2 C3.1875 5.625 3.1875 5.625 3 9 C2.34 9 1.68 9 1 9 C-0.4783226 6.04335481 -0.06032783 3.25770263 0 0 Z " fill="#F9CDD0" transform="translate(48,593)"/>
<path d="M0 0 C3 1 3 1 4.1875 2.6875 C5.19313465 5.54969093 5.13689641 7.98827908 5 11 C2.03947516 7.63576723 1.07710178 4.30840713 0 0 Z " fill="#C43333" transform="translate(920,527)"/>
<path d="M0 0 C0 0.66 0 1.32 0 2 C-3.50776784 3.60355101 -6.14354879 4.22036864 -10 4 C-6.58908673 0.88145073 -4.68377325 -0.53528837 0 0 Z " fill="#BB1B1C" transform="translate(392,513)"/>
<path d="M0 0 C5.75 1.75 5.75 1.75 8 4 C5.39417629 4.93065133 4.35801776 5.14917407 1.75 4.0625 C1.1725 3.711875 0.595 3.36125 0 3 C0 2.01 0 1.02 0 0 Z " fill="#C1181A" transform="translate(102,433)"/>
<path d="M0 0 C1.485 0.99 1.485 0.99 3 2 C2.67 5.96 2.34 9.92 2 14 C1.67 14 1.34 14 1 14 C0.67 9.38 0.34 4.76 0 0 Z " fill="#C03434" transform="translate(431,369)"/>
<path d="M0 0 C1.98 0.66 3.96 1.32 6 2 C6.33 3.98 6.66 5.96 7 8 C4.35247996 5.42215154 2.05567935 3.08351902 0 0 Z " fill="#BE1513" transform="translate(161,351)"/>
<path d="M0 0 C-1.0625 1.5 -1.0625 1.5 -3 3 C-6.6875 3.1875 -6.6875 3.1875 -10 3 C-3.94594595 -1.97297297 -3.94594595 -1.97297297 0 0 Z " fill="#F4BFBD" transform="translate(326,341)"/>
<path d="M0 0 C-0.33 0.99 -0.66 1.98 -1 3 C-3.31 3 -5.62 3 -8 3 C-8 2.34 -8 1.68 -8 1 C-5.07175348 0.02391783 -3.04386724 -0.08226668 0 0 Z " fill="#CA4143" transform="translate(617,659)"/>
<path d="M0 0 C0.66 0.33 1.32 0.66 2 1 C0.69593116 3.01920337 -0.63823419 5.01924973 -2 7 C-2.33 7 -2.66 7 -3 7 C-3 5.02 -3 3.04 -3 1 C-2.01 0.67 -1.02 0.34 0 0 Z " fill="#C12F2E" transform="translate(188,579)"/>
<path d="M0 0 C2.875 -0.1875 2.875 -0.1875 6 0 C6.66 0.99 7.32 1.98 8 3 C5.36 2.67 2.72 2.34 0 2 C0 1.34 0 0.68 0 0 Z " fill="#C73938" transform="translate(397,563)"/>
<path d="M0 0 C0.33 0 0.66 0 1 0 C1 1.65 1 3.3 1 5 C-0.98 5.99 -0.98 5.99 -3 7 C-2.25 2.25 -2.25 2.25 0 0 Z " fill="#CC3D3D" transform="translate(104,364)"/>
</svg>
