<?xml version="1.0" encoding="UTF-8"?>
<svg version="1.1" xmlns="http://www.w3.org/2000/svg" width="1000" height="1000">
<path d="M0 0 C330 0 660 0 1000 0 C1000 330 1000 660 1000 1000 C670 1000 340 1000 0 1000 C0 670 0 340 0 0 Z " fill="#CC0001" transform="translate(0,0)"/>
<path d="M0 0 C57.87899149 -0.63564481 57.87899149 -0.63564481 74 15 C74.54785156 15.50917969 75.09570312 16.01835937 75.66015625 16.54296875 C90.32791583 31.73591666 89.50191724 54.7227331 89.57421875 74.2578125 C89.58896545 76.57852256 89.6038451 78.89923178 89.61885071 81.21994019 C89.64567049 86.05257942 89.65935243 90.88506682 89.66577148 95.71777344 C89.67671861 101.91108156 89.73873984 108.10279107 89.8124876 114.29562569 C89.86077939 119.07400043 89.87329491 123.85198291 89.87583351 128.6305809 C89.88306339 130.91522066 89.90353235 133.19985861 89.93753624 135.48425674 C89.98137558 138.66799166 89.97485832 141.84784445 89.95581055 145.03173828 C89.99188416 146.44216652 89.99188416 146.44216652 90.02868652 147.88108826 C89.98262146 150.49091264 89.86723264 152.53624921 89 155 C86.59477205 157.3040564 84.0259121 158.65676677 81 160 C80.09636719 160.4640625 79.19273437 160.928125 78.26171875 161.40625 C49.76644271 173.5134993 11.98922616 179.34671194 -17.31640625 167.6796875 C-29.3793363 162.15398988 -37.10543384 154.20864709 -42.25390625 142.03515625 C-47.16776743 128.18388903 -46.21543408 113.32407298 -40.375 99.875 C-31.75932008 84.11780593 -16.23759585 75.79519532 0.3359375 70.91015625 C7.4673487 69.13870763 14.71907599 67.97031461 22 67 C22.74056641 66.90066162 23.48113281 66.80132324 24.24414062 66.69897461 C31.86263392 65.80495167 39.46388089 65.88809794 47.125 65.9375 C48.47656083 65.94252861 49.82812348 65.94708909 51.1796875 65.95117188 C54.45317265 65.96286289 57.72656186 65.97924971 61 66 C60.77524423 47.31536458 60.77524423 47.31536458 51.7734375 31.43359375 C44.71956987 25.73145847 36.39218045 24.87571043 27.63671875 24.68359375 C26.44874443 24.6524221 26.44874443 24.6524221 25.23677063 24.62062073 C22.72043072 24.55552196 20.20399128 24.49642577 17.6875 24.4375 C15.97590139 24.394277 14.26431265 24.35066152 12.55273438 24.30664062 C8.36858986 24.19914685 4.18436399 24.09977935 0 24 C0 16.08 0 8.16 0 0 Z " fill="#FEF9F8" transform="translate(224,488)"/>
<path d="M0 0 C53.07212311 -0.82258744 53.07212311 -0.82258744 71 12 C72.03125 12.721875 73.0625 13.44375 74.125 14.1875 C83.18884505 22.06910439 87.24586455 35.5282891 89 47 C89.25382476 50.7175723 89.25429149 54.41606041 89.22705078 58.14111328 C89.22734283 59.20571274 89.22763489 60.27031219 89.22793579 61.36717224 C89.22655338 64.8516381 89.21104373 68.33588445 89.1953125 71.8203125 C89.1915785 74.24982588 89.18873335 76.67934077 89.18673706 79.1088562 C89.17913113 85.47758197 89.15950887 91.84621532 89.1373291 98.21490479 C89.11680502 104.72398631 89.10772134 111.23308289 89.09765625 117.7421875 C89.07626001 130.49483091 89.04254994 143.24741052 89 156 C86.81455884 157.11488568 84.62679893 158.22476614 82.4375 159.33203125 C81.82841797 159.64338013 81.21933594 159.954729 80.59179688 160.2755127 C53.36604157 174.00543228 15.38150407 177.90347417 -13.81640625 169.15625 C-24.48921886 165.37595607 -34.43174492 157.03025938 -39.57421875 146.8984375 C-45.40107301 133.17444265 -46.56292485 116.97711131 -41.3203125 102.7890625 C-33.68001383 86.64949667 -19.69522866 78.11061936 -3.4375 72.1875 C17.99581793 65.87882529 39.8457298 65.69223604 62 66 C61.31259745 47.76648413 61.31259745 47.76648413 53 32 C45.63896862 25.70204974 36.6240317 24.73212625 27.24609375 24.5859375 C26.45977066 24.56657135 25.67344757 24.5472052 24.86329651 24.5272522 C22.38813622 24.46817784 19.91292756 24.42136446 17.4375 24.375 C15.744122 24.33675354 14.05076206 24.29769811 12.35742188 24.2578125 C8.23838323 24.16103626 4.11950235 24.08089979 0 24 C0 16.08 0 8.16 0 0 Z " fill="#FEFAFA" transform="translate(582,488)"/>
<path d="M0 0 C20.54078083 -0.55977904 41.15414164 -0.97052907 57.1875 13.99609375 C67.47974732 25.37523787 71.33454363 41.05938571 71.22705078 56.00585938 C71.22734283 57.07992035 71.22763489 58.15398132 71.22793579 59.2605896 C71.22654948 62.78839372 71.2110211 66.31598306 71.1953125 69.84375 C71.19157989 72.29854212 71.18873409 74.75333574 71.18673706 77.20812988 C71.17912017 83.65250805 71.15948833 90.09679531 71.1373291 96.5411377 C71.11682879 103.12376679 71.1077264 109.70641065 71.09765625 116.2890625 C71.07624064 129.192747 71.04251549 142.09636865 71 155 C68.77437697 156.12299139 66.54767681 157.24375299 64.3203125 158.36328125 C63.69552002 158.67881958 63.07072754 158.99435791 62.42700195 159.31945801 C35.3481077 172.91210532 -2.77170566 176.84669193 -31.8203125 168.15625 C-42.51894801 164.36101538 -52.07826424 156.08442589 -57.57421875 146.15625 C-63.22116787 134.11805474 -64.80080058 117.49483652 -60.375 104.75 C-59.63513012 103.14181061 -58.8439757 101.5560802 -58 100 C-57.5875 99.15695312 -57.175 98.31390625 -56.75 97.4453125 C-48.98689019 82.93359018 -34.60373159 75.58334119 -19.47558594 70.76953125 C-3.02102329 65.86659159 13.65840749 64.82153408 30.75 64.9375 C32.03132812 64.94201172 33.31265625 64.94652344 34.6328125 64.95117188 C37.75525931 64.9628228 40.87760318 64.97917975 44 65 C43.30065916 45.90368123 43.30065916 45.90368123 34 30 C25.67121884 24.9596514 18.16996445 23.90232396 8.625 23.4375 C4.355625 23.2209375 4.355625 23.2209375 0 23 C0 15.41 0 7.82 0 0 Z " fill="#FEFBFA" transform="translate(882,489)"/>
<path d="M0 0 C1 1 1 1 1.11352539 3.13305664 C1.10567017 4.50772095 1.10567017 4.50772095 1.09765625 5.91015625 C1.09282227 7.39418945 1.09282227 7.39418945 1.08789062 8.90820312 C1.07532227 10.46958008 1.07532227 10.46958008 1.0625 12.0625 C1.05798828 13.10728516 1.05347656 14.15207031 1.04882812 15.22851562 C1.03699913 17.8190666 1.02051689 20.40950559 1 23 C-3.05884743 22.53026822 -7.07309725 22.01794242 -11.0859375 21.24609375 C-27.31639261 18.14398865 -46.49289101 15.95385246 -61.625 24.1875 C-65.60135207 27.08016814 -67.77416823 30.23457898 -69 35 C-70.00489338 43.18569398 -69.46541356 50.91358283 -65 58 C-57.69397269 66.94358516 -47.53137035 69.63502742 -36.88964844 72.86743164 C-22.76994805 77.16740152 -9.06949666 83.29775782 -1.21484375 96.59375 C5.12733881 109.1557579 6.5147803 124.10275877 2.375 137.6875 C-2.67259924 150.21825336 -10.65267091 157.65070641 -22.58203125 163.640625 C-33.22780781 167.87460242 -43.12175174 168.48518127 -54.4375 168.375 C-55.23081726 168.37200897 -56.02413452 168.36901794 -56.8414917 168.36593628 C-86.53119986 168.23440007 -86.53119986 168.23440007 -95 164 C-95 156.41 -95 148.82 -95 141 C-92.215625 141.66 -89.43125 142.32 -86.5625 143 C-78.31372626 144.76744515 -70.30435091 145.38508371 -61.875 145.375 C-60.33114624 145.37693359 -60.33114624 145.37693359 -58.75610352 145.37890625 C-48.71337473 145.23572923 -38.34481128 144.25155443 -30.25 137.8125 C-25.82080089 132.27600111 -24.3824351 126.64047364 -24.6640625 119.578125 C-25.74209098 111.30488315 -29.14627133 105.87753727 -35.609375 100.67578125 C-41.14792381 96.79336713 -46.80228198 95.02587094 -53.29223633 93.35424805 C-60.3484995 91.52648757 -66.81174957 89.46562381 -73.25 86 C-74.14259521 85.51998535 -74.14259521 85.51998535 -75.05322266 85.03027344 C-86.47098397 78.57746393 -93.56542902 69.18139762 -97.30859375 56.7265625 C-100.59190763 43.77880495 -100.14530273 31.06615367 -93.45703125 19.28125 C-85.53376547 7.24223746 -74.90771223 1.02130174 -61.125 -2.875 C-42.25537616 -6.72176288 -18.63357303 -4.80996788 0 0 Z " fill="#FEFAFA" transform="translate(441,493)"/>
<path d="M0 0 C9.24 0 18.48 0 28 0 C28 23.1 28 46.2 28 70 C40.21 70 52.42 70 65 70 C65 78.91 65 87.82 65 97 C52.79 97 40.58 97 28 97 C28 144.85 28 192.7 28 242 C18.76 242 9.52 242 0 242 C0 162.14 0 82.28 0 0 Z " fill="#FEFEFE" transform="translate(477,419)"/>
<path d="M0 0 C1.27230469 -0.01224609 2.54460937 -0.02449219 3.85546875 -0.03710938 C5.72912109 -0.04000977 5.72912109 -0.04000977 7.640625 -0.04296875 C8.76500977 -0.04707764 9.88939453 -0.05118652 11.04785156 -0.05541992 C15.66608977 0.24761008 20.2117066 1.27984132 24.75 2.1875 C24.75 9.1175 24.75 16.0475 24.75 23.1875 C22.72875 22.8575 20.7075 22.5275 18.625 22.1875 C-1.02456695 19.44248512 -18.57423889 21.92212739 -35.25390625 33.22265625 C-47.89794247 42.91231405 -57.44616821 57.24534124 -60.00390625 73.171875 C-60.97320111 85.04958347 -61.20716076 96.81496407 -57.25 108.1875 C-56.99476562 109.00863281 -56.73953125 109.82976562 -56.4765625 110.67578125 C-50.97294741 126.50498612 -39.0505225 138.83598883 -24.25 146.1875 C-16.00662288 149.62328924 -8.04636528 150.38134873 0.8125 150.375 C1.73828857 150.37564453 2.66407715 150.37628906 3.61791992 150.37695312 C10.87591272 150.32134116 17.60924256 149.56403156 24.75 148.1875 C24.75 155.1175 24.75 162.0475 24.75 169.1875 C-1.59962202 176.29301605 -28.39428746 172.34040879 -52.109375 159.13671875 C-70.04604116 148.0043849 -83.89809955 129.37454666 -88.83886719 108.7265625 C-93.7339024 84.53932967 -90.51936778 60.23321008 -77.13427734 39.45556641 C-63.13712991 18.82210288 -41.93638018 5.35108736 -17.46386719 0.65258789 C-11.67034769 -0.18580885 -5.8437811 0.00292482 0 0 Z " fill="#FEFAF9" transform="translate(137.25,489.8125)"/>
<path d="M0 0 C9.24 0 18.48 0 28 0 C28 79.86 28 159.72 28 242 C18.76 242 9.52 242 0 242 C0 162.14 0 82.28 0 0 Z " fill="#FEFEFD" transform="translate(706,419)"/>
<path d="M0 0 C1.1919397 0.00737183 1.1919397 0.00737183 2.40795898 0.01489258 C8.41173663 0.13453863 13.66070561 0.83497148 19.1875 3.3125 C19.92871094 3.64121094 20.66992188 3.96992188 21.43359375 4.30859375 C33.23829218 10.22117234 41.67205332 19.69761024 46 32.125 C48.37832726 39.80771774 48.1875 45.86966507 48.1875 54.3125 C22.7775 54.3125 -2.6325 54.3125 -28.8125 54.3125 C-23.83634421 71.24534668 -23.83634421 71.24534668 -11.8125 83.3125 C-1.67368382 88.30391719 7.28151002 87.71972451 18.1875 86.3125 C18.1875 90.9325 18.1875 95.5525 18.1875 100.3125 C7.8268584 104.45675664 -5.89412079 103.72610064 -16.2109375 99.5703125 C-28.26464729 93.7425429 -36.77318469 86.40899841 -42.8125 74.3125 C-43.43511719 73.11173828 -43.43511719 73.11173828 -44.0703125 71.88671875 C-47.11764561 64.69458642 -47.22799963 57.44798407 -47.3125 49.75 C-47.33103027 48.6973999 -47.34956055 47.6447998 -47.36865234 46.56030273 C-47.26012418 32.93363447 -41.79430165 22.48932946 -32.6875 12.625 C-23.74794416 3.98745619 -12.28450859 -0.08980094 0 0 Z " fill="#FEF8F8" transform="translate(126.8125,337.6875)"/>
<path d="M0 0 C9.24 0 18.48 0 28 0 C28 56.76 28 113.52 28 172 C18.76 172 9.52 172 0 172 C0 115.24 0 58.48 0 0 Z " fill="#FEFEFE" transform="translate(766,489)"/>
<path d="M0 0 C0 17.82 0 35.64 0 54 C-13.47616384 57.74337884 -23.63753323 60.21798841 -37.03808594 60.29516602 C-38.41872448 60.30663365 -39.79932053 60.32700238 -41.1796875 60.35668945 C-51.59817661 60.57997843 -60.68533979 59.49321629 -69.9375 54.375 C-75.92978094 47.47479771 -77.91015607 40.64927771 -77.54296875 31.5390625 C-76.37985132 23.95787981 -73.20648547 17.30749839 -67.125 12.5 C-65.3203125 11.28125 -65.3203125 11.28125 -63 10 C-62.45730469 9.68699951 -61.91460938 9.37399902 -61.35546875 9.05151367 C-55.71415562 5.98066083 -50.01326293 4.59081118 -43.75 3.3125 C-42.20832153 2.99116089 -42.20832153 2.99116089 -40.63549805 2.66333008 C-26.80204964 -0.14331338 -14.4349959 0 0 0 Z " fill="#CB0203" transform="translate(926,577)"/>
<path d="M0 0 C0 17.82 0 35.64 0 54 C-14.24181063 57.95605851 -24.92616004 60.20405672 -39.125 60.3125 C-40.36765625 60.34150391 -41.6103125 60.37050781 -42.890625 60.40039062 C-52.33355372 60.4644606 -62.5924655 59.50491252 -70.5625 53.875 C-76.06769896 47.38168841 -77.70091312 40.38308594 -77.38671875 31.96484375 C-76.42377057 24.58224101 -73.78512374 18.79741969 -68 14 C-67.236875 13.319375 -66.47375 12.63875 -65.6875 11.9375 C-47.56385832 -1.12838121 -20.93976215 0 0 0 Z " fill="#CB0303" transform="translate(644,577)"/>
<path d="M0 0 C4.95 0.020625 9.9 0.04125 15 0.0625 C15 17.5525 15 35.0425 15 53.0625 C1.26231198 57.28948093 -9.9303701 59.41342341 -24.0625 59.375 C-25.84624023 59.39916992 -25.84624023 59.39916992 -27.66601562 59.42382812 C-37.47721977 59.42921594 -47.18515071 58.54310673 -55 52.0625 C-59.82551062 47.23698938 -62.07758643 40.83541821 -62.375 34.0625 C-61.99828109 25.46645933 -58.16905307 17.89953133 -52 12 C-37.70906368 0.3600476 -17.47963605 -0.10296074 0 0 Z " fill="#CB0101" transform="translate(270,577.9375)"/>
<path d="M0 0 C0.90427734 -0.020625 1.80855469 -0.04125 2.74023438 -0.0625 C14.0750203 -0.1273165 22.18405032 3.16661637 30.9375 10.25 C31.63875 10.80171875 32.34 11.3534375 33.0625 11.921875 C41.7324194 19.57578822 48.16055643 32.70179324 48.9375 44.25 C49.74371783 60.0445403 47.15533213 74.70376808 36.9375 87.25 C27.39163291 97.05715907 17.44820154 102.2136851 3.70336914 102.65698242 C-11.10957082 102.82815904 -22.32421793 99.51220695 -33.28515625 89.1484375 C-44.77532282 76.99248558 -47.66350232 62.59282489 -47.33984375 46.3515625 C-46.69748117 32.65421921 -39.77063133 19.87899292 -29.99609375 10.55078125 C-20.93993815 3.44815056 -11.40502301 0.063142 0 0 Z M-23.0625 24.25 C-31.34990161 35.63022572 -32.17580066 46.57310141 -31.0625 60.25 C-28.92036844 71.76395714 -22.50754515 80.48820632 -13.0625 87.25 C-5.86228825 91.34366877 2.03881243 91.13241704 9.9375 89.3125 C18.08857842 86.59119508 24.87666032 79.76692644 28.9765625 72.30859375 C34.02430002 61.49494468 34.86202082 48.28657028 31.8125 36.6875 C28.11985795 26.69160386 21.12182316 18.66266326 11.625 13.8125 C-1.95262527 8.39079765 -13.85486601 14.08877403 -23.0625 24.25 Z " fill="#FDF6F5" transform="translate(385.0625,337.75)"/>
<path d="M0 0 C5.28 0 10.56 0 16 0 C16.01458252 1.91143799 16.02916504 3.82287598 16.04418945 5.79223633 C16.09608331 12.1466173 16.16143267 18.50075175 16.23571491 24.85490894 C16.28021752 28.70297414 16.31951621 32.55093836 16.34643555 36.39916992 C16.37267144 40.12116613 16.41321222 43.84276943 16.46318626 47.56451988 C16.47971925 48.97604121 16.49131719 50.38763028 16.49761391 51.79923439 C16.54893076 62.25740223 16.72802581 73.7453266 24 82 C30.13523909 87.19355566 35.66223434 87.75056571 43.5 87.5625 C44.49386719 87.57345703 45.48773438 87.58441406 46.51171875 87.59570312 C52.58952657 87.53548706 58.17558554 87.00429113 63 83 C73.86597664 68.67631983 71.66357725 48.68766332 71.73822021 31.62408447 C71.7580413 28.05002534 71.7999794 24.47622556 71.83984375 20.90234375 C71.91440741 13.93496953 71.96308685 6.96767465 72 0 C77.28 0 82.56 0 88 0 C88.09094898 8.49393507 88.16408517 16.9874814 88.20724869 25.48177528 C88.22798173 29.42748971 88.25603187 33.37284916 88.30175781 37.31835938 C88.34573352 41.13744895 88.36924398 44.9562006 88.37950897 48.77552414 C88.38680891 50.22095422 88.40105897 51.66636919 88.42292023 53.11165237 C88.59471602 64.95787555 87.81584266 77.78234744 79.75 87.19921875 C79.1725 87.79347656 78.595 88.38773437 78 89 C77.34 89.68707031 76.68 90.37414062 76 91.08203125 C65.30965112 101.37149205 53.61805974 103.54601702 39.14453125 103.27734375 C27.05429079 102.7152021 17.10590314 97.43344621 8.75 88.9375 C0.20554911 78.50924882 -0.7169 67.09652419 -0.48828125 54.19921875 C-0.47892943 52.62597287 -0.47182456 51.0527122 -0.46684265 49.47944641 C-0.44795852 45.38402482 -0.39902494 41.28952215 -0.34332275 37.19445801 C-0.29172292 32.99760359 -0.26924264 28.80059736 -0.24414062 24.60351562 C-0.19088211 16.40187972 -0.10310538 8.20116083 0 0 Z " fill="#FEFAFA" transform="translate(187,337)"/>
<path d="M0 0 C0 3.96 0 7.92 0 12 C-1.794375 12.680625 -3.58875 13.36125 -5.4375 14.0625 C-16.65488629 18.77935148 -23.38528636 25.32664051 -28.54858398 36.28735352 C-30.77059696 42.32312878 -30.47976491 48.54972756 -30.51171875 54.90625 C-30.52859218 56.24004745 -30.54674595 57.57382925 -30.56611633 58.90759277 C-30.61333418 62.39269113 -30.64332472 65.87772605 -30.66955566 69.36303711 C-30.69950496 72.92965215 -30.74598531 76.49604913 -30.79101562 80.0625 C-30.8767269 87.04155638 -30.94268322 94.0206532 -31 101 C-36.94 101 -42.88 101 -49 101 C-49.07458695 93.24448713 -49.12880853 85.48918667 -49.16479492 77.73339844 C-49.17980939 75.09924681 -49.20022713 72.46511988 -49.22631836 69.83105469 C-49.26302525 66.02793249 -49.27980049 62.22514306 -49.29296875 58.421875 C-49.30845261 57.25887878 -49.32393646 56.09588257 -49.33988953 54.89764404 C-49.34302225 39.40972499 -45.12287064 26.5985057 -34.375 15.3203125 C-24.82288409 5.98814663 -13.56067665 0 0 0 Z " fill="#FDF4F5" transform="translate(336,339)"/>
<path d="M0 0 C7.13475992 5.24315987 11.5067549 10.04052938 13 19 C-5.15 19 -23.3 19 -42 19 C-40.85991771 11.019424 -39.00858944 7.24266253 -32.8125 2.23046875 C-22.48743189 -4.93777955 -11.06402861 -6.90995193 0 0 Z " fill="#CA0304" transform="translate(142,357)"/>
<path d="M0 0 C9.24 0 18.48 0 28 0 C28 79.86 28 159.72 28 242 C18.76 242 9.52 242 0 242 C0 162.14 0 82.28 0 0 Z M2 2 C2 80.54 2 159.08 2 240 C10.25 240 18.5 240 27 240 C27 161.13 27 82.26 27 1 C18.66000266 1 10.33276717 1.65280137 2 2 Z " fill="#F8CFCF" transform="translate(706,419)"/>
<path d="M0 0 C1.80791016 0.07734375 1.80791016 0.07734375 3.65234375 0.15625 C4.90660156 0.22070312 6.16085937 0.28515625 7.453125 0.3515625 C8.72285156 0.40828125 9.99257813 0.465 11.30078125 0.5234375 C14.43547115 0.66485208 17.56935336 0.81626241 20.703125 0.9765625 C20.703125 1.6365625 20.703125 2.2965625 20.703125 2.9765625 C21.363125 3.3065625 22.023125 3.6365625 22.703125 3.9765625 C22.043125 3.9765625 21.383125 3.9765625 20.703125 3.9765625 C20.703125 26.0865625 20.703125 48.1965625 20.703125 70.9765625 C32.583125 70.9765625 44.463125 70.9765625 56.703125 70.9765625 C56.703125 71.6365625 56.703125 72.2965625 56.703125 72.9765625 C44.493125 72.9765625 32.283125 72.9765625 19.703125 72.9765625 C19.703125 49.8765625 19.703125 26.7765625 19.703125 2.9765625 C10.463125 2.9765625 1.223125 2.9765625 -8.296875 2.9765625 C-8.296875 82.5065625 -8.296875 162.0365625 -8.296875 243.9765625 C-8.956875 243.9765625 -9.616875 243.9765625 -10.296875 243.9765625 C-10.296875 164.1165625 -10.296875 84.2565625 -10.296875 1.9765625 C-6.08690596 -0.12842202 -4.55560462 -0.21488701 0 0 Z " fill="#B21615" transform="translate(485.296875,416.0234375)"/>
<path d="M0 0 C9.24 0 18.48 0 28 0 C28 23.1 28 46.2 28 70 C27.67 70 27.34 70 27 70 C27 47.23 27 24.46 27 1 C18.42 1 9.84 1 1 1 C1 79.87 1 158.74 1 240 C9.25 240 17.5 240 26 240 C26 192.81 26 145.62 26 97 C26.66 97 27.32 97 28 97 C28 144.85 28 192.7 28 242 C18.76 242 9.52 242 0 242 C0 162.14 0 82.28 0 0 Z " fill="#FECECE" transform="translate(477,419)"/>
<path d="M0 0 C9.24 0 18.48 0 28 0 C28 56.76 28 113.52 28 172 C18.76 172 9.52 172 0 172 C0 115.24 0 58.48 0 0 Z M2 2 C1.12657639 20.40305193 0.84832482 38.77519017 0.8656745 57.19642758 C0.86826507 60.82625979 0.86584329 64.4560899 0.86428833 68.08592224 C0.86248961 74.15421006 0.86481572 80.22248555 0.86962891 86.29077148 C0.87510912 93.28027492 0.87327261 100.26974935 0.8678025 107.25925213 C0.86325505 113.31592034 0.86262756 119.37257986 0.86524117 125.42924923 C0.86678962 129.02352719 0.86703653 132.61779151 0.86370468 136.21206856 C0.86026097 140.20202471 0.86504228 144.19193101 0.87060547 148.18188477 C0.86858124 149.35232834 0.86655701 150.52277191 0.86447144 151.72868347 C0.86729126 152.82256378 0.87011108 153.91644409 0.87301636 155.04347229 C0.87339338 155.9821946 0.87377041 156.92091692 0.87415886 157.88808537 C1.03799129 161.93948327 1.55223228 165.97009056 2 170 C10.25 170 18.5 170 27 170 C27.02311684 148.24317684 27.04097812 126.48635662 27.05181217 104.72952366 C27.05697559 94.62819057 27.06401915 84.52686523 27.07543945 74.42553711 C27.0853849 65.62455536 27.09185309 56.82357922 27.09408849 48.02259201 C27.09539584 43.35953733 27.09848318 38.69649872 27.10573006 34.03344917 C27.11248809 29.64967634 27.11461741 25.26592629 27.11310768 20.88214874 C27.11338411 19.26839766 27.11539052 17.65464587 27.11920547 16.04089928 C27.12413934 13.8473111 27.12299944 11.6538103 27.12025452 9.46022034 C27.12117631 8.2296267 27.1220981 6.99903307 27.12304783 5.73114872 C27.31158701 3.08673206 27.31158701 3.08673206 26 2 C24.21928754 1.91273777 22.4351686 1.89300959 20.65234375 1.90234375 C19.19429321 1.90609009 19.19429321 1.90609009 17.70678711 1.90991211 C15.84098999 1.92356812 15.84098999 1.92356812 13.9375 1.9375 C11.86939184 1.94886014 9.80128149 1.95982349 7.73316956 1.97047424 C6.12226362 1.97880201 6.12226362 1.97880201 4.47881413 1.98729801 C3.25180113 1.9935855 3.25180113 1.9935855 2 2 Z " fill="#F5BFBF" transform="translate(766,489)"/>
<path d="M0 0 C5.28 0 10.56 0 16 0 C16.33 22.77 16.66 45.54 17 69 C16.34 68.67 15.68 68.34 15 68 C13.46354963 61.26446828 13.87408118 54.27922998 13.90234375 47.41015625 C13.9037587 46.11049423 13.90517365 44.81083221 13.90663147 43.4717865 C13.91042666 40.03756747 13.92023092 36.60339158 13.93133545 33.16918945 C13.94161445 29.65641869 13.94614292 26.14364088 13.95117188 22.63085938 C13.96185624 15.75388688 13.97942833 8.87694996 14 2 C10.04 2 6.08 2 2 2 C2.01160156 3.96453125 2.02320313 5.9290625 2.03515625 7.953125 C2.11820561 28.98667295 1.69389426 49.97832576 1 71 C0.67 71 0.34 71 0 71 C0 47.57 0 24.14 0 0 Z " fill="#FED8DA" transform="translate(187,337)"/>
<path d="M0 0 C2 2 2 2 2.24609566 3.91715431 C2.24425207 4.70436552 2.24240849 5.49157673 2.24050903 6.30264282 C2.24325836 7.20570663 2.24600769 8.10877045 2.24884033 9.03919983 C2.24164978 10.0325383 2.23445923 11.02587677 2.22705078 12.04931641 C2.22734283 13.09324051 2.22763489 14.13716461 2.22793579 15.21272278 C2.22653842 18.67575285 2.21095797 22.13856984 2.1953125 25.6015625 C2.19158382 27.9976693 2.18873617 30.39377761 2.18673706 32.78988647 C2.17908918 39.10612169 2.15943077 45.42226538 2.1373291 51.73846436 C2.11689552 58.17979697 2.10774067 64.62114433 2.09765625 71.0625 C2.07618598 83.70837245 2.04241887 96.35418137 2 109 C0.515 109.495 0.515 109.495 -1 110 C-1.33 110.99 -1.66 111.98 -2 113 C-2.969375 113.12375 -3.93875 113.2475 -4.9375 113.375 C-6.4534375 113.684375 -6.4534375 113.684375 -8 114 C-8.495 114.99 -8.495 114.99 -9 116 C-9.99 115.34 -10.98 114.68 -12 114 C-10.37750059 113.16180842 -8.75191503 112.3295884 -7.125 111.5 C-5.76761719 110.80390625 -5.76761719 110.80390625 -4.3828125 110.09375 C-2 109 -2 109 0 109 C0 73.03 0 37.06 0 0 Z " fill="#B71F21" transform="translate(671,535)"/>
<path d="M0 0 C5.28 0 10.56 0 16 0 C16.06808105 8.54574241 16.1229907 17.09126998 16.15543652 25.6372118 C16.17101768 29.60647054 16.19211576 33.57553231 16.22631836 37.54467773 C16.25918404 41.38318983 16.27690961 45.22151381 16.28463173 49.06015587 C16.29012688 50.51641483 16.30085594 51.97266482 16.31719017 53.42884254 C16.40984516 62.04022898 15.85827664 69.79962977 13 78 C12.67 78 12.34 78 12 78 C12.15847412 77.00291016 12.31694824 76.00582031 12.48022461 74.97851562 C13.329991 68.13545797 13.23727236 61.22934038 13.31640625 54.34375 C13.33701023 52.83060178 13.35800752 51.31745886 13.37937927 49.80432129 C13.4342447 45.84574721 13.48380874 41.88712429 13.53222656 37.9284668 C13.58270312 33.87935097 13.63825186 29.83030498 13.69335938 25.78125 C13.80050554 17.85422443 13.90157537 9.92713866 14 2 C9.71 2 5.42 2 1 2 C1 13.88 1 25.76 1 38 C0.67 38 0.34 38 0 38 C0 25.46 0 12.92 0 0 Z " fill="#FBC4C5" transform="translate(259,337)"/>
<path d="M0 0 C0.33 0.99 0.66 1.98 1 3 C0.52949219 3.32613281 0.05898438 3.65226562 -0.42578125 3.98828125 C-1.04839844 4.42527344 -1.67101562 4.86226563 -2.3125 5.3125 C-2.92738281 5.74175781 -3.54226563 6.17101562 -4.17578125 6.61328125 C-6.04232661 7.95834747 -6.04232661 7.95834747 -7.60546875 9.66796875 C-9 11 -9 11 -11 11 C-11.268125 12.03125 -11.53625 13.0625 -11.8125 14.125 C-12.45846372 16.60947586 -13.25955494 18.46826554 -14.51863098 20.73977661 C-16.10264317 24.22589892 -16.39294041 26.47945586 -16.43237305 30.28076172 C-16.45216721 31.5015744 -16.47196136 32.72238708 -16.49235535 33.98019409 C-16.49874527 35.28352692 -16.50513519 36.58685974 -16.51171875 37.9296875 C-16.52858055 39.28876351 -16.5467328 40.64782407 -16.56611633 42.00686646 C-16.61346024 45.56761851 -16.64336991 49.1283079 -16.66955566 52.68927002 C-16.69944054 56.32943087 -16.74594342 59.96937612 -16.79101562 63.609375 C-16.8768706 70.73945961 -16.94429458 77.86961089 -17 85 C-17.66 85 -18.32 85 -19 85 C-19.11662329 77.38441993 -19.20508063 69.76893417 -19.25906086 62.15266037 C-19.28498892 58.61479564 -19.32007094 55.07754848 -19.37719727 51.54003906 C-19.44267827 47.45892933 -19.46631863 43.37845282 -19.48828125 39.296875 C-19.51408768 38.04638367 -19.5398941 36.79589233 -19.56648254 35.50750732 C-19.57021956 23.62977792 -16.25819054 14.47784723 -8.00390625 5.84765625 C-5.47740754 3.51815549 -2.97624793 1.71134256 0 0 Z " fill="#B80B0F" transform="translate(324,355)"/>
<path d="M0 0 C0 3.86695678 -1.41909971 6.5088452 -3 10 C-0.16037579 10.9465414 1.70406529 11.14994224 4.6550293 11.20532227 C6.06615242 11.2352401 6.06615242 11.2352401 7.50578308 11.26576233 C8.51836685 11.28247482 9.53095062 11.29918732 10.57421875 11.31640625 C11.61318802 11.33718735 12.65215729 11.35796844 13.72261047 11.37937927 C17.04417253 11.44480656 20.36581416 11.50372821 23.6875 11.5625 C25.9381593 11.60569169 28.18881052 11.64930619 30.43945312 11.69335938 C35.9595511 11.80048098 41.47972837 11.90226016 47 12 C46.505 9.03 46.505 9.03 46 6 C48 8 48 8 49 14 C30.85 14 12.7 14 -6 14 C-4.95175806 6.66230644 -4.25065427 5.34056563 0 0 Z " fill="#C82F30" transform="translate(106,362)"/>
<path d="M0 0 C4.16684313 -0.05419305 8.33297365 -0.09376961 12.5 -0.125 C14.25957031 -0.15013672 14.25957031 -0.15013672 16.0546875 -0.17578125 C22.41081848 -0.21148985 27.92457188 0.09015007 34 2 C30.53047287 3.03007551 27.88235946 2.77967531 24.30078125 2.26220703 C20.045213 1.77722398 15.77722797 1.89740986 11.5 1.9375 C8.365 1.958125 5.23 1.97875 2 2 C2 8.6 2 15.2 2 22 C4.15208984 21.94779297 4.15208984 21.94779297 6.34765625 21.89453125 C8.2525924 21.86637948 10.15754128 21.83908082 12.0625 21.8125 C13.00544922 21.78736328 13.94839844 21.76222656 14.91992188 21.73632812 C20.76642736 21.67521483 24.81287544 22.25895359 30 25 C29.67 25.66 29.34 26.32 29 27 C28.29875 26.690625 27.5975 26.38125 26.875 26.0625 C20.97206664 23.88098115 14.8482314 23.74056106 8.625 23.4375 C5.77875 23.293125 2.9325 23.14875 0 23 C0 15.41 0 7.82 0 0 Z " fill="#F9CFCF" transform="translate(882,489)"/>
<path d="M0 0 C0 17.49 0 34.98 0 53 C-0.33 53 -0.66 53 -1 53 C-1 35.84 -1 18.68 -1 1 C-5.434375 1.144375 -9.86875 1.28875 -14.4375 1.4375 C-15.83798584 1.48060303 -17.23847168 1.52370605 -18.68139648 1.56811523 C-19.77524658 1.60622314 -20.86909668 1.64433105 -21.99609375 1.68359375 C-23.12200928 1.72025146 -24.2479248 1.75690918 -25.40795898 1.79467773 C-27.92853441 1.71218045 -27.92853441 1.71218045 -29 3 C-31.14204311 3.20983279 -33.28924113 3.36823385 -35.4375 3.5 C-39.87784331 3.64147326 -39.87784331 3.64147326 -44 5 C-46.3329866 5.04022391 -48.66706666 5.04320247 -51 5 C-36.56184284 -3.07974731 -15.56362278 -0.20125374 0 0 Z " fill="#B00B0D" transform="translate(285,578)"/>
<path d="M0 0 C1.66611905 -0.042721 3.33382885 -0.04063832 5 0 C5.33 0.33 5.66 0.66 6 1 C7.32781878 1.20604085 8.66295895 1.3662959 10 1.5 C13.88888889 1.88888889 13.88888889 1.88888889 15 3 C17.58189446 3.10091475 20.136465 3.13971499 22.71875 3.1328125 C23.87836243 3.13424759 23.87836243 3.13424759 25.06140137 3.13571167 C26.69897544 3.13639341 28.33655219 3.13453957 29.97412109 3.13037109 C32.48931921 3.12502271 35.00433873 3.13031626 37.51953125 3.13671875 C39.10677123 3.13605797 40.6940111 3.1347768 42.28125 3.1328125 C43.4171759 3.13584885 43.4171759 3.13584885 44.5760498 3.13894653 C48.08015563 3.44453684 48.08015563 3.44453684 51 2 C53.33297433 1.95907063 55.66705225 1.95758277 58 2 C50.83983001 6.77344666 41.40314848 6.38670709 33.0625 6.375 C31.44118164 6.3747583 31.44118164 6.3747583 29.78710938 6.37451172 C19.94462782 6.23676338 10.40079184 4.98126963 1 2 C0.67 1.34 0.34 0.68 0 0 Z " fill="#B71B19" transform="translate(346,633)"/>
<path d="M0 0 C8.91 0 17.82 0 27 0 C27 1.65 27 3.3 27 5 C26.34 4.34 25.68 3.68 25 3 C22.47962036 2.62864085 22.47962036 2.62864085 19.5546875 2.5859375 C18.58515137 2.55032715 17.61561523 2.5147168 16.61669922 2.47802734 C14.76455811 2.42702881 14.76455811 2.42702881 12.875 2.375 C8.95625 2.25125 5.0375 2.1275 1 2 C1 10.58 1 19.16 1 28 C0.67 28 0.34 28 0 28 C0 18.76 0 9.52 0 0 Z " fill="#FEE1E2" transform="translate(767,489)"/>
<path d="M0 0 C0 0.66 0 1.32 0 2 C-3.87684087 3.19287411 -6.91621923 4 -11 4 C-11 4.66 -11 5.32 -11 6 C-11.66 6 -12.32 6 -13 6 C-13.268125 6.639375 -13.53625 7.27875 -13.8125 7.9375 C-15 10 -15 10 -18 11 C-18.33 17.93 -18.66 24.86 -19 32 C-22.02691351 25.94617298 -22.17684983 19.05218023 -20.27734375 12.51171875 C-17.64114362 6.8444221 -14.07176101 4.0358805 -8.5 1.25 C-5.33213377 0.1186192 -3.30540916 -0.30049174 0 0 Z " fill="#BA1C1D" transform="translate(392,513)"/>
<path d="M0 0 C-8.13151908 4.31671836 -16.53614936 4.26646179 -25.5625 4.125 C-26.66658203 4.11597656 -27.77066406 4.10695313 -28.90820312 4.09765625 C-31.6057017 4.07430128 -34.30273077 4.04155054 -37 4 C-37.33 3.34 -37.66 2.68 -38 2 C-37.33057373 1.98018066 -36.66114746 1.96036133 -35.97143555 1.93994141 C-32.87646029 1.84344834 -29.78204901 1.73428366 -26.6875 1.625 C-25.63498047 1.5940625 -24.58246094 1.563125 -23.49804688 1.53125 C-17.25386773 1.30069569 -11.36024827 0.66019691 -5.25317383 -0.68212891 C-3 -1 -3 -1 0 0 Z " fill="#FACCC9" transform="translate(633,635)"/>
<path d="M0 0 C0.66 0.66 1.32 1.32 2 2 C1.72270623 3.3461044 1.37609314 4.67809122 1 6 C0.88634081 7.95460048 0.82395932 9.91243385 0.79467773 11.87011719 C0.77473251 13.05103943 0.75478729 14.23196167 0.73423767 15.44866943 C0.71752518 16.71857727 0.70081268 17.98848511 0.68359375 19.296875 C0.66281265 20.60078186 0.64203156 21.90468872 0.62062073 23.24810791 C0.56554764 26.70695808 0.5160736 30.1658664 0.46777344 33.62481689 C0.41745028 37.15748238 0.36182078 40.69006389 0.30664062 44.22265625 C0.19923979 51.14836463 0.09775503 58.07414894 0 65 C-0.33 65 -0.66 65 -1 65 C-1.0231793 57.11567432 -1.0409436 49.2313629 -1.05181217 41.34701157 C-1.05702876 37.68591864 -1.06410421 34.02484904 -1.07543945 30.36376953 C-1.0863118 26.83004782 -1.09228607 23.29634854 -1.09487724 19.76261139 C-1.09762169 17.75960042 -1.10542683 15.75659846 -1.11329651 13.75360107 C-1.11337204 12.53263733 -1.11344757 11.31167358 -1.11352539 10.05371094 C-1.115746 8.97893494 -1.11796661 7.90415894 -1.12025452 6.79681396 C-1.01524382 4.35453253 -0.70765164 2.32815483 0 0 Z " fill="#FFF2F5" transform="translate(289,374)"/>
<path d="M0 0 C0 0.66 0 1.32 0 2 C-5.41511708 3.81235534 -10.08956789 4.27124681 -15.77734375 4.1953125 C-16.58869278 4.1924826 -17.40004181 4.18965271 -18.23597717 4.18673706 C-20.80330753 4.17562663 -23.37027678 4.15053971 -25.9375 4.125 C-27.68814597 4.11495836 -29.43879746 4.10583459 -31.18945312 4.09765625 C-35.45977254 4.07571734 -39.72982525 4.0412516 -44 4 C-44.33 3.34 -44.66 2.68 -45 2 C-44.11328613 2.01047363 -43.22657227 2.02094727 -42.31298828 2.03173828 C-38.97686079 2.06612237 -35.64092562 2.09104425 -32.3046875 2.10986328 C-30.86943564 2.11983031 -29.43420358 2.13340887 -27.99902344 2.15087891 C-20.52090851 2.23953159 -13.32264656 2.2653601 -6.01123047 0.43310547 C-4 0 -4 0 0 0 Z " fill="#B20C0B" transform="translate(162,659)"/>
<path d="M0 0 C6.1055471 -0.02464513 12.21106551 -0.04283371 18.31665039 -0.05493164 C20.39543156 -0.05997288 22.47420916 -0.06680574 24.55297852 -0.07543945 C27.53402586 -0.08751422 30.51502649 -0.09323024 33.49609375 -0.09765625 C34.89921059 -0.10539818 34.89921059 -0.10539818 36.33067322 -0.11329651 C37.19149002 -0.11337204 38.05230682 -0.11344757 38.93920898 -0.11352539 C40.08171364 -0.11685631 40.08171364 -0.11685631 41.24729919 -0.12025452 C43 0 43 0 44 1 C45.155 1.144375 46.31 1.28875 47.5 1.4375 C48.655 1.623125 49.81 1.80875 51 2 C51.495 2.99 51.495 2.99 52 4 C51.09507812 3.86722656 50.19015625 3.73445313 49.2578125 3.59765625 C32.92645842 1.41656907 16.44996145 1.34843211 0 1 C0 0.67 0 0.34 0 0 Z " fill="#B10C0C" transform="translate(582,487)"/>
<path d="M0 0 C3.62498334 -0.02893932 7.24993713 -0.04677792 10.875 -0.0625 C12.42380859 -0.07506836 12.42380859 -0.07506836 14.00390625 -0.08789062 C14.99003906 -0.09111328 15.97617187 -0.09433594 16.9921875 -0.09765625 C18.35899658 -0.10551147 18.35899658 -0.10551147 19.75341797 -0.11352539 C22 0 22 0 24 1 C26.54197964 1.3912935 29.07391589 1.74479119 31.625 2.0625 C32.33140625 2.15337891 33.0378125 2.24425781 33.765625 2.33789062 C35.5100041 2.56183119 37.25495134 2.78133818 39 3 C39 3.33 39 3.66 39 4 C25.8 3.34 12.6 2.68 -1 2 C-0.67 1.34 -0.34 0.68 0 0 Z " fill="#BA1111" transform="translate(389,487)"/>
<path d="M0 0 C0.66 0.33 1.32 0.66 2 1 C1.67 1.66 1.34 2.32 1 3 C0.34 3 -0.32 3 -1 3 C-1 3.99 -1 4.98 -1 6 C-1.94875 6.0825 -2.8975 6.165 -3.875 6.25 C-4.90625 6.4975 -5.9375 6.745 -7 7 C-7.67597415 8.32863884 -8.34087681 9.66292153 -9 11 C-10.48852516 12.47240395 -12.03532616 13.88742243 -13.625 15.25 C-14.44226563 15.95640625 -15.25953125 16.6628125 -16.1015625 17.390625 C-16.72804688 17.92171875 -17.35453125 18.4528125 -18 19 C-18.66 18.67 -19.32 18.34 -20 18 C-14.02895378 10.80525789 -7.76964652 5.19912795 0 0 Z " fill="#C0191B" transform="translate(108,518)"/>
<path d="M0 0 C0.95640381 -0.00193359 1.91280762 -0.00386719 2.89819336 -0.00585938 C3.90116455 -0.00134766 4.90413574 0.00316406 5.9375 0.0078125 C6.96174072 0.00974609 7.98598145 0.01167969 9.04125977 0.01367188 C16.38251742 0.05546602 23.63401289 0.34779277 30.9375 1.1328125 C30.9375 1.4628125 30.9375 1.7928125 30.9375 2.1328125 C17.24808013 3.60114961 3.65863086 2.82035013 -10.0625 2.1328125 C-10.0625 1.8028125 -10.0625 1.4728125 -10.0625 1.1328125 C-6.65009891 0.36441181 -3.49542789 0.00461312 0 0 Z " fill="#FAC8C7" transform="translate(392.0625,488.8671875)"/>
<path d="M0 0 C0.33 0 0.66 0 1 0 C1 4.62 1 9.24 1 14 C-17.81 14.495 -17.81 14.495 -37 15 C-37 14.01 -37 13.02 -37 12 C-18.685 12.495 -18.685 12.495 0 13 C0 8.71 0 4.42 0 0 Z " fill="#B31C1B" transform="translate(925,540)"/>
<path d="M0 0 C6.875 0.875 6.875 0.875 8 2 C8.08700342 3.63472882 8.10701063 5.27314055 8.09765625 6.91015625 C8.09443359 7.89951172 8.09121094 8.88886719 8.08789062 9.90820312 C8.07951172 10.94912109 8.07113281 11.99003906 8.0625 13.0625 C8.05798828 14.10728516 8.05347656 15.15207031 8.04882812 16.22851562 C8.03699913 18.8190666 8.02051689 21.40950559 8 24 C5.36 23.67 2.72 23.34 0 23 C0 22.67 0 22.34 0 22 C1.98 22 3.96 22 6 22 C6 15.73 6 9.46 6 3 C4.35 2.67 2.7 2.34 1 2 C0.67 1.34 0.34 0.68 0 0 Z " fill="#FBD0CD" transform="translate(434,492)"/>
<path d="M0 0 C0.33 0.99 0.66 1.98 1 3 C0.52949219 3.32613281 0.05898438 3.65226562 -0.42578125 3.98828125 C-1.04839844 4.42527344 -1.67101562 4.86226563 -2.3125 5.3125 C-2.92738281 5.74175781 -3.54226563 6.17101562 -4.17578125 6.61328125 C-6.04232661 7.95834747 -6.04232661 7.95834747 -7.60546875 9.66796875 C-9 11 -9 11 -11 11 C-11.268125 12.03125 -11.53625 13.0625 -11.8125 14.125 C-12.80998897 17.6485042 -14.2661898 20.76880827 -16 24 C-16.66 24 -17.32 24 -18 24 C-15.05636703 12.84518034 -9.2916158 6.60737124 0 0 Z " fill="#BA1C1E" transform="translate(324,355)"/>
<path d="M0 0 C0.99 0.495 0.99 0.495 2 1 C4.2195126 8.45568671 4.30197851 15.63886455 4.25 23.375 C4.25773437 24.54933594 4.26546875 25.72367187 4.2734375 26.93359375 C4.26957031 28.61775391 4.26957031 28.61775391 4.265625 30.3359375 C4.26224121 31.86033447 4.26224121 31.86033447 4.25878906 33.41552734 C4 36 4 36 2 39 C1.34 39 0.68 39 0 39 C0.144375 38.29617188 0.28875 37.59234375 0.4375 36.8671875 C2.80180536 24.29039649 2.33455709 12.54824438 0 0 Z " fill="#B31213" transform="translate(431,369)"/>
<path d="M0 0 C1 2 1 2 0.25 4.3125 C-1 7 -1 7 -2.56640625 9.0859375 C-4.58947469 13.19822376 -4.3263984 16.80008261 -4.1875 21.3125 C-4.17396484 22.14845703 -4.16042969 22.98441406 -4.14648438 23.84570312 C-4.11131217 25.89741498 -4.05751048 27.94879275 -4 30 C-7.19240374 25.21139438 -7.56369217 20.70738327 -7 15 C-5.6839568 9.28101817 -3.48810259 4.69089658 0 0 Z " fill="#C32627" transform="translate(215,593)"/>
<path d="M0 0 C0 0.99 0 1.98 0 3 C-0.77601563 2.83628906 -1.55203125 2.67257812 -2.3515625 2.50390625 C-7.0492078 1.855088 -11.64013661 1.89359613 -16.375 1.9375 C-17.76525391 1.94426758 -17.76525391 1.94426758 -19.18359375 1.95117188 C-21.45579709 1.96288426 -23.72786388 1.97928628 -26 2 C-25 0 -25 0 -23.328125 -0.6171875 C-15.69387515 -1.87248362 -7.60660362 -1.19319272 0 0 Z " fill="#C22726" transform="translate(142,337)"/>
<path d="M0 0 C0 0.33 0 0.66 0 1 C-4.32739258 2.61949389 -8.1433842 3.31306343 -12.75 3.5625 C-17.03279844 3.6800499 -17.03279844 3.6800499 -21 5 C-23.3329866 5.04022391 -25.66706666 5.04320247 -28 5 C-24.31570462 2.81601047 -20.40672134 2.13217229 -16.25 1.375 C-15.57195312 1.2409375 -14.89390625 1.106875 -14.1953125 0.96875 C-9.39550455 0.0744892 -4.88103792 -0.12038434 0 0 Z " fill="#BD2120" transform="translate(262,578)"/>
<path d="M0 0 C-3.41876676 3.14930731 -6.0524437 3.42888585 -10.625 3.625 C-14.97169186 3.69039052 -14.97169186 3.69039052 -19 5 C-21.00800456 4.71887936 -23.01014051 4.38932033 -25 4 C-25 3.67 -25 3.34 -25 3 C-22.3347536 2.49118023 -19.66821581 1.99279859 -17 1.5 C-15.88431641 1.28537109 -15.88431641 1.28537109 -14.74609375 1.06640625 C-9.74779985 0.15367432 -5.08079684 -0.13856719 0 0 Z " fill="#BB1F1F" transform="translate(620,578)"/>
<path d="M0 0 C0 0.66 0 1.32 0 2 C-8.95604433 4.46456257 -17.80177495 4.1920743 -27 4 C-27 3.67 -27 3.34 -27 3 C-25.92621094 2.86722656 -24.85242188 2.73445312 -23.74609375 2.59765625 C-22.30989167 2.41930436 -20.87369399 2.24091705 -19.4375 2.0625 C-18.73302734 1.97548828 -18.02855469 1.88847656 -17.30273438 1.79882812 C-13.93510913 1.37981485 -10.57924349 0.93690828 -7.22265625 0.43359375 C-4 0 -4 0 0 0 Z " fill="#B71A1D" transform="translate(636,657)"/>
<path d="M0 0 C-6.60324911 3.72810436 -12.52341712 3.16378844 -19.9375 2.6875 C-21.09830078 2.62626953 -22.25910156 2.56503906 -23.45507812 2.50195312 C-26.30455823 2.3495118 -29.15226651 2.18178377 -32 2 C-32 1.67 -32 1.34 -32 1 C-31.04746338 0.96241577 -31.04746338 0.96241577 -30.07568359 0.92407227 C-27.17528458 0.80743211 -24.27515651 0.68501607 -21.375 0.5625 C-20.37597656 0.52318359 -19.37695312 0.48386719 -18.34765625 0.44335938 C-0.89013416 -0.30812336 -0.89013416 -0.30812336 0 0 Z " fill="#F5AEAC" transform="translate(270,636)"/>
<path d="M0 0 C0.66 0.33 1.32 0.66 2 1 C1.84660156 1.92941406 1.69320312 2.85882813 1.53515625 3.81640625 C0.81806202 8.83606589 0.64854502 13.87587934 0.4375 18.9375 C0.39431641 19.90751953 0.35113281 20.87753906 0.30664062 21.87695312 C0.20137907 24.25118601 0.09924293 26.62550921 0 29 C-0.33 29 -0.66 29 -1 29 C-1.02903892 24.91668161 -1.04681189 20.8333898 -1.0625 16.75 C-1.07087891 15.59113281 -1.07925781 14.43226563 -1.08789062 13.23828125 C-1.09111328 12.12324219 -1.09433594 11.00820313 -1.09765625 9.859375 C-1.10289307 8.83295898 -1.10812988 7.80654297 -1.11352539 6.74902344 C-1.01336951 4.32374344 -0.69923078 2.31302639 0 0 Z " fill="#F9D7D7" transform="translate(81,371)"/>
<path d="M0 0 C9.57 0.33 19.14 0.66 29 1 C29 1.33 29 1.66 29 2 C28.38479492 2.02505615 27.76958984 2.0501123 27.13574219 2.07592773 C24.34029844 2.19218487 21.54516702 2.31477642 18.75 2.4375 C17.78191406 2.47681641 16.81382812 2.51613281 15.81640625 2.55664062 C14.41455078 2.61948242 14.41455078 2.61948242 12.984375 2.68359375 C12.12553711 2.72025146 11.26669922 2.75690918 10.38183594 2.79467773 C8.15039857 2.98703514 6.15017476 3.38846244 4 4 C4 3.34 4 2.68 4 2 C2.68 1.34 1.36 0.68 0 0 Z " fill="#B60C0B" transform="translate(580,660)"/>
<path d="M0 0 C1.38232443 1.62626404 2.71937515 3.2925002 4 5 C2.2984375 4.5359375 2.2984375 4.5359375 0.5625 4.0625 C-6.82676614 2.38744128 -14.4561027 2.32912526 -22 2 C-22 1.67 -22 1.34 -22 1 C-18.70837401 0.83252349 -15.41669287 0.66615639 -12.125 0.5 C-11.18785156 0.45230469 -10.25070312 0.40460938 -9.28515625 0.35546875 C-8.38925781 0.31035156 -7.49335938 0.26523437 -6.5703125 0.21875 C-5.74289551 0.17685547 -4.91547852 0.13496094 -4.06298828 0.09179688 C-2.70965236 0.03157743 -1.35467505 0 0 0 Z " fill="#CA3536" transform="translate(401,336)"/>
<path d="M0 0 C0.33 1.32 0.66 2.64 1 4 C1.97582031 4.03738281 2.95164062 4.07476563 3.95703125 4.11328125 C5.22933594 4.17902344 6.50164062 4.24476563 7.8125 4.3125 C9.07707031 4.37050781 10.34164063 4.42851563 11.64453125 4.48828125 C15 5 15 5 16.94921875 6.54296875 C17.29597656 7.02378906 17.64273437 7.50460937 18 8 C15.37440156 7.6919856 12.74960194 7.37879818 10.125 7.0625 C9.37863281 6.97548828 8.63226563 6.88847656 7.86328125 6.79882812 C2.2265625 6.11328125 2.2265625 6.11328125 0 5 C0 3.35 0 1.7 0 0 Z " fill="#F6C9C7" transform="translate(346,652)"/>
<path d="M0 0 C0.33 0.66 0.66 1.32 1 2 C0.2575 2.721875 -0.485 3.44375 -1.25 4.1875 C-4.00408972 6.89539371 -4.00408972 6.89539371 -6.125 9.75 C-8 12 -8 12 -11 13 C-9.1168869 7.00827651 -5.0224291 3.53430196 0 0 Z " fill="#BC1817" transform="translate(863,587)"/>
<path d="M0 0 C0 3 0 3 -1.609375 5.0078125 C-2.66898437 6.05582031 -2.66898437 6.05582031 -3.75 7.125 C-4.44609375 7.82882812 -5.1421875 8.53265625 -5.859375 9.2578125 C-7.99788242 10.99827657 -9.30910227 11.60000169 -12 12 C-8.32167983 7.47384007 -4.58913637 3.60575001 0 0 Z " fill="#FDE3E1" transform="translate(309,348)"/>
<path d="M0 0 C1.47906892 -0.02689216 2.95827483 -0.04634621 4.4375 -0.0625 C5.26121094 -0.07410156 6.08492187 -0.08570313 6.93359375 -0.09765625 C9 0 9 0 10 1 C11.155 1.144375 12.31 1.28875 13.5 1.4375 C14.655 1.623125 15.81 1.80875 17 2 C17.33 2.66 17.66 3.32 18 4 C12.06 3.34 6.12 2.68 0 2 C0 1.34 0 0.68 0 0 Z " fill="#BB1C1E" transform="translate(616,487)"/>
<path d="M0 0 C2.64 0 5.28 0 8 0 C8.33 0.66 8.66 1.32 9 2 C11.32156597 2.40729228 13.6568787 2.74438677 16 3 C16.33 3.99 16.66 4.98 17 6 C15.10307857 5.54619105 13.20750405 5.08675008 11.3125 4.625 C10.25675781 4.36976563 9.20101563 4.11453125 8.11328125 3.8515625 C5.29593234 3.08094511 2.68331675 2.14501457 0 1 C0 0.67 0 0.34 0 0 Z " fill="#BF2423" transform="translate(387,560)"/>
<path d="M0 0 C0.33 0 0.66 0 1 0 C1 1.65 1 3.3 1 5 C0.01 5.33 -0.98 5.66 -2 6 C-2.33 6.99 -2.66 7.98 -3 9 C-3.969375 9.12375 -4.93875 9.2475 -5.9375 9.375 C-6.948125 9.58125 -7.95875 9.7875 -9 10 C-9.33 10.66 -9.66 11.32 -10 12 C-10.99 11.34 -11.98 10.68 -13 10 C-12.14535156 9.61328125 -11.29070313 9.2265625 -10.41015625 8.828125 C-9.30542969 8.30734375 -8.20070313 7.7865625 -7.0625 7.25 C-5.96035156 6.73953125 -4.85820313 6.2290625 -3.72265625 5.703125 C-0.86317201 4.28749037 -0.86317201 4.28749037 -0.12109375 1.796875 C-0.08113281 1.20390625 -0.04117188 0.6109375 0 0 Z " fill="#BB1817" transform="translate(672,639)"/>
<path d="M0 0 C0.33 0 0.66 0 1 0 C2.12862175 5.36095333 2.09688221 10.55306686 2 16 C1.34 16 0.68 16 0 16 C-0.33 16.66 -0.66 17.32 -1 18 C-0.505 9.09 -0.505 9.09 0 0 Z " fill="#BD2A2A" transform="translate(445,610)"/>
<path d="M0 0 C0.66 0.66 1.32 1.32 2 2 C1.64477539 3.84082031 1.64477539 3.84082031 1 6 C0.85870882 7.51270605 0.75537183 9.02928128 0.68359375 10.546875 C0.64169922 11.39121094 0.59980469 12.23554688 0.55664062 13.10546875 C0.51732422 13.97816406 0.47800781 14.85085938 0.4375 15.75 C0.39431641 16.63816406 0.35113281 17.52632813 0.30664062 18.44140625 C0.20086385 20.62745963 0.09877454 22.81362089 0 25 C-0.33 25 -0.66 25 -1 25 C-1.02908357 21.58335127 -1.04682691 18.1667345 -1.0625 14.75 C-1.07087891 13.78191406 -1.07925781 12.81382812 -1.08789062 11.81640625 C-1.09111328 10.88183594 -1.09433594 9.94726562 -1.09765625 8.984375 C-1.10289307 8.12553711 -1.10812988 7.26669922 -1.11352539 6.38183594 C-1.00539986 4.11329256 -0.63582423 2.17368285 0 0 Z " fill="#FCE2E2" transform="translate(289,374)"/>
<path d="M0 0 C0 0.66 0 1.32 0 2 C-4.873261 3.5912689 -8.80790596 4.21192221 -14 4 C-14 3.34 -14 2.68 -14 2 C-12.4176994 1.66179834 -10.83410625 1.32964061 -9.25 1 C-8.36828125 0.814375 -7.4865625 0.62875 -6.578125 0.4375 C-4 0 -4 0 0 0 Z " fill="#BD1E21" transform="translate(162,659)"/>
<path d="M0 0 C0.33 0.99 0.66 1.98 1 3 C0.21625 3.763125 -0.5675 4.52625 -1.375 5.3125 C-4.07257717 7.90891805 -4.07257717 7.90891805 -6 11 C-7.32 10.67 -8.64 10.34 -10 10 C-9.52949219 9.61328125 -9.05898438 9.2265625 -8.57421875 8.828125 C-5.3182388 6.10469664 -2.34546467 3.58718126 0 0 Z " fill="#BB1517" transform="translate(438,640)"/>
<path d="M0 0 C1 2 1 2 0.25 4.3125 C-1.4473122 7.96172124 -3.14298914 11.14298914 -6 14 C-5.57202798 8.29370646 -3.15654048 4.58921384 0 0 Z " fill="#B7181B" transform="translate(215,593)"/>
<path d="M0 0 C0 0.99 0 1.98 0 3 C-1.40691607 3.72750788 -2.82606022 4.43140353 -4.25 5.125 C-5.03890625 5.51945313 -5.8278125 5.91390625 -6.640625 6.3203125 C-9 7 -9 7 -13 5 C-8.71 3.35 -4.42 1.7 0 0 Z " fill="#BB1C1B" transform="translate(303,648)"/>
<path d="M0 0 C-0.56589844 0.19335938 -1.13179687 0.38671875 -1.71484375 0.5859375 C-2.81505859 0.97652344 -2.81505859 0.97652344 -3.9375 1.375 C-5.03384766 1.75785156 -5.03384766 1.75785156 -6.15234375 2.1484375 C-8.18682116 2.85271413 -8.18682116 2.85271413 -9 5 C-10.65 4.67 -12.3 4.34 -14 4 C-11.97803833 1.97803833 -10.74135514 1.32448642 -8.125 0.3125 C-7.44695312 0.04050781 -6.76890625 -0.23148437 -6.0703125 -0.51171875 C-3.68892218 -1.07336741 -2.29569809 -0.76694846 0 0 Z " fill="#FAD4D3" transform="translate(110,495)"/>
<path d="M0 0 C5.0302076 0.52537724 10.01885239 1.10594786 15 2 C15 2.33 15 2.66 15 3 C9.77912985 4.65327555 9.77912985 4.65327555 7 5 C4.6875 3.75 4.6875 3.75 3 2 C2.01 1.34 1.02 0.68 0 0 Z " fill="#FCDBD8" transform="translate(223,635)"/>
<path d="M0 0 C0.33 0.99 0.66 1.98 1 3 C-1.31 3.33 -3.62 3.66 -6 4 C-6.33 4.99 -6.66 5.98 -7 7 C-7.99 6.67 -8.98 6.34 -10 6 C-7.27521226 2.63408573 -3.93143208 1.55773724 0 0 Z " fill="#C01A1C" transform="translate(231,583)"/>
<path d="M0 0 C4.62 1.32 9.24 2.64 14 4 C14 4.33 14 4.66 14 5 C9.21521178 5.09764874 4.72314313 4.77112541 0 4 C0 2.68 0 1.36 0 0 Z " fill="#FDDDDB" transform="translate(576,632)"/>
<path d="M0 0 C1.65 0 3.3 0 5 0 C5 0.66 5 1.32 5 2 C5.928125 1.938125 6.85625 1.87625 7.8125 1.8125 C11 2 11 2 12.875 3.5 C13.24625 3.995 13.6175 4.49 14 5 C8.94744036 4.36843005 4.70406799 2.86540627 0 1 C0 0.67 0 0.34 0 0 Z " fill="#B91F20" transform="translate(857,631)"/>
<path d="M0 0 C3.3 0.33 6.6 0.66 10 1 C10 1.66 10 2.32 10 3 C6.7 3 3.4 3 0 3 C0 2.01 0 1.02 0 0 Z " fill="#B50F0E" transform="translate(888,552)"/>
<path d="M0 0 C0.66 0 1.32 0 2 0 C2.66 3.63 3.32 7.26 4 11 C3.01 11.495 3.01 11.495 2 12 C0.40861915 7.82262526 -0.21278058 4.46839215 0 0 Z " fill="#BF282C" transform="translate(341,542)"/>
<path d="M0 0 C-3.41016497 2.86453858 -6.90694544 4.34703566 -11 6 C-11 5.34 -11 4.68 -11 4 C-10.34 4 -9.68 4 -9 4 C-9 3.34 -9 2.68 -9 2 C-5.86501708 0.14223235 -3.62528568 -0.20140476 0 0 Z " fill="#BB1A1F" transform="translate(853,563)"/>
<path d="M0 0 C1.88325912 3.76651824 2.40869661 5.01520804 2 9 C1.01 10.485 1.01 10.485 0 12 C-0.66 12 -1.32 12 -2 12 C-1.34 8.04 -0.68 4.08 0 0 Z " fill="#BD2428" transform="translate(433,396)"/>
<path d="M0 0 C0.66 0 1.32 0 2 0 C0.47291037 3.43595166 -1.59927045 6.11912454 -4 9 C-4 7.02 -4 5.04 -4 3 C-2.68 2.67 -1.36 2.34 0 2 C0 1.34 0 0.68 0 0 Z " fill="#BB1D1C" transform="translate(189,577)"/>
<path d="M0 0 C0.33 1.32 0.66 2.64 1 4 C-0.65 5.32 -2.3 6.64 -4 8 C-4.66 7.67 -5.32 7.34 -6 7 C-4.02 4.69 -2.04 2.38 0 0 Z " fill="#BF2928" transform="translate(94,529)"/>
<path d="M0 0 C1.32 0 2.64 0 4 0 C4.33 0.99 4.66 1.98 5 3 C5.99 3.33 6.98 3.66 8 4 C7.67 4.99 7.34 5.98 7 7 C4.36 5.35 1.72 3.7 -1 2 C-0.67 1.34 -0.34 0.68 0 0 Z " fill="#FCDFDC" transform="translate(628,513)"/>
<path d="M0 0 C0.33 0.99 0.66 1.98 1 3 C-0.65 4.32 -2.3 5.64 -4 7 C-4.66 6.67 -5.32 6.34 -6 6 C-2.25 1.125 -2.25 1.125 0 0 Z " fill="#BD0E11" transform="translate(324,355)"/>
<path d="M0 0 C0.99 0.66 1.98 1.32 3 2 C-0.465 4.97 -0.465 4.97 -4 8 C-4.66 7.67 -5.32 7.34 -6 7 C-4.02 4.69 -2.04 2.38 0 0 Z " fill="#FEE5E5" transform="translate(92,353)"/>
<path d="M0 0 C0.66 0.33 1.32 0.66 2 1 C-3.14285714 6.57142857 -3.14285714 6.57142857 -7 7 C-4.78071806 4.09197539 -3.07030857 2.04687238 0 0 Z " fill="#FCDCDE" transform="translate(102,344)"/>
<path d="M0 0 C0.95465783 2.16967689 1.14401212 3.56328793 0.3984375 5.82421875 C-0.35870385 7.5684743 -1.17609198 9.28627131 -2 11 C-2.99 11 -3.98 11 -5 11 C-4.72285156 10.45730469 -4.44570313 9.91460937 -4.16015625 9.35546875 C-3.79792969 8.64003906 -3.43570312 7.92460937 -3.0625 7.1875 C-2.52302734 6.12595703 -2.52302734 6.12595703 -1.97265625 5.04296875 C-0.89269484 2.88189715 -0.89269484 2.88189715 0 0 Z " fill="#FBD3D3" transform="translate(416,402)"/>
<path d="M0 0 C-3.50538557 1.96301592 -7.13351728 2.95902388 -11 4 C-11 2 -11 2 -10 0.3125 C-6.70980593 -1.84668986 -3.77762382 -0.68121085 0 0 Z " fill="#BA1311" transform="translate(379,337)"/>
<path d="M0 0 C2.31 1.98 4.62 3.96 7 6 C5.02 6.99 5.02 6.99 3 8 C0 2.25 0 2.25 0 0 Z " fill="#C42426" transform="translate(69,635)"/>
<path d="M0 0 C1.134375 0.020625 2.26875 0.04125 3.4375 0.0625 C0.40224514 2.08600324 -0.75676202 2.38374018 -4.25 2.6875 C-5.05824219 2.76226563 -5.86648438 2.83703125 -6.69921875 2.9140625 C-7.31410156 2.96304688 -7.92898438 3.01203125 -8.5625 3.0625 C-7.923125 2.753125 -7.28375 2.44375 -6.625 2.125 C-2.58814103 0.04540598 -2.58814103 0.04540598 0 0 Z " fill="#B6191A" transform="translate(400.5625,634.9375)"/>
<path d="M0 0 C2.60334924 2.71182212 2.99456691 3.89133813 3.1875 7.75 C3.0946875 9.35875 3.0946875 9.35875 3 11 C0.60236815 8.60236815 0.65719414 7.66726502 0.375 4.375 C0.30023438 3.55773437 0.22546875 2.74046875 0.1484375 1.8984375 C0.09945312 1.27195312 0.05046875 0.64546875 0 0 Z " fill="#FBD1D4" transform="translate(48,592)"/>
<path d="M0 0 C2.16874252 0.50603992 3.99967627 0.99983813 6 2 C6.625 5.0625 6.625 5.0625 7 8 C4.35247996 5.42215154 2.05567935 3.08351902 0 0 Z " fill="#BA0F0C" transform="translate(161,351)"/>
<path d="M0 0 C-2.90092502 1.93395001 -3.89674737 2.30131941 -7.1875 2.625 C-8.445625 2.74875 -9.70375 2.8725 -11 3 C-7.68381684 -0.31618316 -4.50821267 -1.6697084 0 0 Z " fill="#FAD4D1" transform="translate(326,342)"/>
<path d="M0 0 C2.83374881 3.20336822 3.5205537 5.78087253 4 10 C3.34 10 2.68 10 2 10 C0.39644899 6.49223216 -0.22036864 3.85645121 0 0 Z " fill="#BB1E1E" transform="translate(921,526)"/>
<path d="M0 0 C5.75 1.75 5.75 1.75 8 4 C6 5 6 5 2.875 4.0625 C1.92625 3.711875 0.9775 3.36125 0 3 C0 2.01 0 1.02 0 0 Z " fill="#BE1417" transform="translate(102,433)"/>
<path d="M0 0 C0.99 0 1.98 0 3 0 C2.39816251 2.02045442 1.72693904 4.02111039 1 6 C0.01 6.495 0.01 6.495 -1 7 C-0.67 4.69 -0.34 2.38 0 0 Z " fill="#BA1310" transform="translate(84,358)"/>
</svg>
