<?xml version="1.0" standalone="no"?>
<!DOCTYPE svg PUBLIC "-//W3C//DTD SVG 20010904//EN"
 "http://www.w3.org/TR/2001/REC-SVG-20010904/DTD/svg10.dtd">
<svg version="1.0" xmlns="http://www.w3.org/2000/svg"
 width="484.000000pt" height="372.000000pt" viewBox="0 0 484.000000 372.000000"
 preserveAspectRatio="xMidYMid meet">

<g transform="translate(0.000000,372.000000) scale(0.100000,-0.100000)"
fill="#008ccd" stroke="none">
<path d="M59 3651 l-29 -30 2 -1776 3 -1777 24 -19 c28 -23 97 -25 137 -4 19
9 58 15 109 15 248 1 403 97 522 326 28 55 358 798 732 1652 375 854 690 1571
701 1592 11 22 20 42 20 45 0 3 -493 5 -1096 5 l-1096 0 -29 -29z m434 -148
c-4 -2 -25 -14 -47 -27 l-38 -23 36 -22 c19 -12 40 -20 46 -16 6 4 10 -10 10
-36 0 -40 0 -41 -17 -22 -10 11 -36 34 -59 51 l-40 31 -44 -29 c-25 -16 -52
-40 -62 -52 -17 -23 -18 -23 -18 30 0 31 4 51 9 47 6 -3 24 3 41 14 l31 19
-31 22 c-26 19 -34 20 -41 9 -6 -9 -9 3 -9 36 0 46 1 48 14 29 8 -11 33 -33
55 -49 l41 -28 56 37 c30 20 58 45 62 54 5 11 8 1 10 -28 2 -24 0 -46 -5 -47z
m-136 -213 c45 0 85 -6 102 -15 58 -29 67 -128 16 -172 -23 -20 -37 -23 -110
-23 -69 0 -86 -3 -94 -17 -8 -14 -10 -4 -10 42 0 46 2 56 10 43 14 -24 153
-26 187 -2 30 20 30 68 0 88 -34 24 -173 22 -187 -1 -8 -14 -10 -7 -11 32 0
38 3 46 12 37 7 -7 42 -12 85 -12z m140 -355 c1 -49 -1 -84 -3 -77 -8 17 -205
17 -222 0 -9 -9 -12 1 -12 48 1 45 3 55 11 42 8 -15 25 -18 104 -18 85 0 94 2
100 20 7 23 -2 60 -16 60 -5 0 -9 5 -9 11 0 6 10 9 23 7 21 -3 22 -8 24 -93z
m-6 -285 c5 0 9 -39 9 -87 -1 -65 -3 -83 -11 -70 -8 14 -25 17 -109 17 -84 0
-101 -3 -109 -17 -8 -13 -10 5 -11 70 0 89 5 99 40 77 10 -6 11 -10 3 -10 -8
0 -13 -14 -13 -35 0 -34 2 -35 36 -35 36 0 36 0 32 40 -3 38 -2 40 24 40 16 0
28 -4 28 -10 0 -5 -4 -10 -10 -10 -5 0 -10 -14 -10 -31 0 -29 1 -30 43 -27 41
3 42 4 40 38 -1 19 -6 36 -12 38 -6 2 -11 8 -11 14 0 6 7 7 16 4 9 -3 20 -6
25 -6z m-181 -219 c0 -6 -4 -13 -10 -16 -5 -3 -10 -19 -10 -36 l0 -29 95 0
c79 0 96 3 104 18 8 13 10 3 11 -41 0 -53 -1 -57 -16 -43 -12 12 -37 16 -105
16 l-89 0 0 -33 c0 -18 6 -39 13 -46 10 -10 6 -12 -18 -9 -16 2 -29 6 -27 11
1 4 2 54 2 112 l0 105 25 0 c14 0 25 -4 25 -9z m190 -245 c0 -40 -2 -44 -32
-52 -30 -9 -33 -14 -36 -52 -3 -36 0 -43 20 -51 14 -5 28 -5 36 1 9 8 12 0 11
-38 -1 -27 -3 -41 -6 -32 -2 10 -51 37 -124 69 -65 28 -119 55 -119 59 0 4 46
26 103 50 56 23 111 53 122 66 11 12 21 23 23 23 1 1 2 -19 2 -43z m-198 -228
c-7 -7 -12 -25 -12 -40 l0 -28 95 0 c79 0 96 3 104 18 8 13 10 2 10 -43 0 -33
-3 -54 -6 -47 -3 8 -34 12 -104 12 l-99 0 0 -34 c0 -19 6 -36 13 -39 20 -7 3
-17 -21 -10 -21 5 -22 10 -22 114 l0 109 27 0 c21 0 24 -3 15 -12z m198 -310
c-1 -48 -3 -59 -11 -45 -8 14 -25 17 -109 17 -84 0 -101 -3 -109 -17 -8 -14
-10 -4 -10 42 0 46 2 56 10 43 8 -15 25 -18 110 -18 92 0 101 2 106 20 9 35
13 22 13 -42z m-4 -143 c-3 -12 -24 -35 -46 -50 -22 -15 -40 -34 -40 -41 0
-21 67 -18 79 4 8 13 10 2 10 -43 0 -33 -3 -54 -6 -47 -3 8 -35 12 -108 12
-89 0 -106 -3 -114 -17 -8 -13 -10 4 -11 65 0 69 3 85 20 102 26 26 51 25 84
-1 l27 -21 36 28 c19 15 43 40 52 56 l16 28 3 -26 c2 -15 1 -36 -2 -49z m-5
-245 c5 0 9 -39 9 -87 -1 -65 -3 -83 -11 -70 -8 14 -25 17 -109 17 -84 0 -101
-3 -109 -17 -8 -13 -10 5 -11 70 0 80 2 87 19 87 11 0 23 -4 26 -10 3 -5 1
-10 -4 -10 -6 0 -11 -16 -11 -35 0 -34 2 -35 36 -35 36 0 36 0 32 40 -3 38 -2
40 24 40 16 0 28 -4 28 -10 0 -5 -4 -10 -10 -10 -5 0 -10 -13 -10 -30 0 -28 2
-30 39 -30 26 0 41 5 45 16 7 19 -3 64 -15 64 -5 0 -9 5 -9 11 0 6 7 8 16 5 9
-3 20 -6 25 -6z m-95 -270 c60 -27 110 -53 112 -58 1 -4 -49 -29 -112 -56 -77
-32 -117 -55 -124 -69 -9 -18 -11 -12 -11 35 -1 46 2 56 13 52 15 -6 133 33
141 47 3 4 -27 20 -66 35 -59 23 -72 26 -80 13 -6 -9 -9 2 -9 36 1 44 2 48 14
32 8 -10 63 -40 122 -67z m104 -365 c0 -25 -4 -45 -9 -45 -6 0 -26 -10 -46
-21 l-36 -22 36 -24 c19 -13 40 -21 45 -18 6 4 10 -11 10 -37 0 -39 -1 -41
-14 -23 -7 11 -34 34 -58 52 l-45 32 -44 -28 c-24 -15 -52 -38 -61 -52 -17
-24 -17 -23 -17 36 -1 33 3 55 7 48 6 -9 16 -7 41 8 l34 21 -29 19 c-16 10
-35 17 -41 14 -9 -3 -13 8 -13 38 0 41 1 42 18 21 9 -11 33 -33 54 -48 l36
-27 57 36 c31 20 59 43 62 51 9 24 13 16 13 -31z m-199 -268 c-6 -6 -11 -24
-11 -39 0 -26 3 -28 36 -28 l37 0 -6 40 c-5 39 -4 40 24 40 16 0 29 -4 29 -10
0 -5 -4 -10 -10 -10 -5 0 -10 -13 -10 -30 0 -28 2 -30 40 -30 49 0 61 20 37
62 -16 27 -16 28 8 28 25 0 25 -1 25 -87 0 -60 -3 -83 -10 -73 -7 11 -33 16
-100 19 -76 2 -94 0 -111 -15 -19 -17 -19 -16 -19 68 l0 85 26 -5 c18 -3 22
-8 15 -15z"/>
<path d="M368 2097 c-36 -14 -35 -20 2 -34 29 -11 30 -10 30 18 0 16 -1 29 -2
28 -2 -1 -15 -6 -30 -12z"/>
<path d="M300 1440 c-31 -31 -24 -40 30 -40 43 0 50 3 50 20 0 18 -26 40 -49
40 -6 0 -20 -9 -31 -20z"/>
<path d="M2440 3648 c10 -18 190 -406 399 -861 770 -1673 1021 -2208 1096
-2332 170 -281 340 -395 593 -395 40 0 79 -6 96 -15 36 -19 126 -19 152 -1 19
14 19 40 24 1093 3 593 3 1399 0 1791 l-5 714 -24 19 c-23 18 -56 19 -1187 19
l-1163 0 19 -32z m2048 -88 c84 0 102 3 102 15 0 8 5 15 10 15 6 0 10 -35 10
-85 l0 -85 -30 0 c-32 0 -40 14 -15 24 9 3 15 18 15 36 0 28 -2 30 -41 30
l-41 0 3 -37 c3 -42 2 -43 -38 -43 -24 1 -25 2 -10 11 10 6 17 22 17 40 0 29
-1 30 -42 27 -41 -3 -43 -5 -46 -36 -2 -24 2 -38 15 -48 17 -13 16 -14 -12
-12 l-30 3 -3 89 c-3 87 -2 89 16 73 15 -14 39 -17 120 -17z m-56 -233 c20
-15 39 -27 43 -27 18 0 115 72 115 85 0 9 5 13 10 10 6 -3 10 -29 10 -57 0
-41 -3 -49 -16 -44 -8 3 -29 -1 -47 -10 -30 -16 -30 -17 -11 -31 35 -26 54
-34 54 -23 0 5 5 10 10 10 6 0 10 -18 10 -39 0 -22 -4 -43 -10 -46 -5 -3 -10
0 -10 8 0 14 -80 77 -99 77 -19 0 -95 -50 -118 -78 l-23 -27 0 54 c0 30 3 51
6 48 7 -7 84 32 84 43 0 3 -18 16 -39 28 -29 17 -41 19 -44 10 -3 -7 -6 10 -6
37 l-1 50 23 -26 c12 -14 39 -38 59 -52z m178 -337 c0 -27 -4 -52 -10 -55 -5
-3 -10 1 -10 9 0 14 -17 16 -105 16 l-105 0 0 -36 c0 -23 6 -42 18 -50 16 -12
15 -13 -6 -14 -40 0 -16 -15 103 -65 64 -26 114 -53 112 -59 -2 -6 -55 -32
-117 -58 -114 -47 -132 -60 -127 -88 4 -23 227 -28 227 -5 0 8 5 15 10 15 6 0
10 -27 10 -60 0 -98 -30 -136 -86 -107 -24 13 -28 12 -50 -10 -32 -32 -77 -31
-103 3 -19 24 -21 40 -21 144 l0 116 38 10 c35 8 37 12 40 50 3 38 1 43 -26
52 -21 7 -33 7 -41 -1 -8 -8 -11 23 -11 118 0 100 3 126 12 117 8 -8 49 -12
120 -12 91 0 108 2 108 16 0 8 5 12 10 9 6 -3 10 -28 10 -55z m-75 -634 c45
-19 75 -69 75 -124 0 -91 -46 -142 -130 -142 -60 0 -98 24 -122 77 -55 124 54
240 177 189z m75 -359 c0 -73 -15 -108 -53 -121 -22 -8 -33 -6 -57 12 -36 27
-50 22 -104 -38 -54 -60 -41 -70 86 -70 78 0 100 3 104 15 14 37 24 8 24 -70
0 -83 0 -85 -24 -85 -29 0 -42 15 -21 24 9 3 15 18 15 36 0 29 -2 30 -41 30
l-41 0 4 -40 c3 -38 2 -40 -24 -40 -16 0 -28 5 -28 10 0 6 5 10 10 10 6 0 10
14 10 30 0 29 -2 30 -45 30 l-45 0 0 -40 c0 -31 4 -40 17 -40 12 0 14 -3 6
-11 -6 -6 -20 -8 -32 -4 -20 6 -21 13 -21 126 l0 119 49 37 c28 21 50 46 50
57 1 16 -4 17 -36 11 -21 -3 -44 -14 -50 -23 -11 -13 -13 -6 -13 43 0 46 3 56
12 47 8 -8 49 -12 120 -12 91 0 108 2 108 16 0 8 5 12 10 9 6 -3 10 -34 10
-68z m0 -508 c0 -27 -4 -49 -10 -49 -5 0 -10 4 -10 10 0 9 -136 -35 -152 -49
-4 -4 27 -20 69 -36 54 -21 78 -26 81 -17 2 7 8 10 13 6 12 -7 12 -181 -1
-189 -5 -3 -10 1 -10 9 0 14 -17 16 -104 16 -97 0 -106 -2 -120 -22 -15 -21
-16 -19 -16 41 0 62 1 64 19 47 15 -14 36 -16 117 -14 97 3 99 3 99 27 0 21
-15 31 -123 79 -98 44 -120 58 -110 67 7 7 62 32 122 56 70 28 111 50 114 61
8 33 22 7 22 -43z m-126 -399 c77 0 98 3 102 15 13 33 24 12 24 -44 0 -62 -13
-110 -33 -123 -21 -13 -61 -8 -87 11 -24 19 -24 19 -63 -12 -22 -17 -48 -44
-58 -61 l-19 -31 0 38 c0 50 10 68 59 102 23 15 41 34 41 41 0 21 -70 18 -86
-3 -12 -16 -13 -10 -14 41 0 57 1 58 18 43 15 -13 39 -17 116 -17z m124 -307
l3 -113 -31 0 c-29 0 -30 1 -16 16 9 8 16 29 16 46 l0 31 -102 -6 c-82 -4
-105 -9 -115 -23 -11 -15 -13 -9 -13 47 1 48 3 60 11 47 8 -15 26 -18 114 -18
l105 0 0 27 c0 14 -8 35 -17 46 -17 18 -17 19 12 15 l30 -3 3 -112z m2 -172
c0 -28 -4 -53 -10 -56 -5 -3 -10 1 -10 9 0 13 -15 16 -84 16 -69 0 -88 -4
-110 -21 -30 -23 -33 -45 -10 -77 14 -20 23 -22 110 -22 78 0 94 3 94 16 0 8
5 12 10 9 12 -8 13 -95 1 -95 -5 0 -11 7 -15 15 -4 12 -24 15 -93 15 -103 0
-127 11 -144 69 -9 29 -9 47 1 75 18 55 41 66 143 66 69 0 89 3 93 15 12 31
24 13 24 -34z m-190 -259 c0 -4 -10 -12 -22 -17 -41 -18 -31 -85 12 -85 10 0
34 22 54 50 31 43 41 50 70 50 54 0 82 -40 74 -106 -2 -23 -9 -30 -30 -32 -33
-4 -35 1 -8 28 15 15 17 25 11 42 -14 38 -37 33 -71 -16 -47 -70 -86 -83 -133
-46 -31 24 -43 74 -28 113 8 21 17 27 41 27 16 0 30 -3 30 -8z"/>
<path d="M4460 2747 c0 -24 1 -25 35 -14 36 11 34 17 -12 31 -20 6 -23 4 -23
-17z"/>
<path d="M4375 2500 c-8 -25 10 -50 35 -50 23 0 70 38 70 56 0 10 -13 14 -49
14 -41 0 -51 -3 -56 -20z"/>
<path d="M4500 2500 c0 -24 44 -38 65 -20 28 23 18 40 -25 40 -33 0 -40 -3
-40 -20z"/>
<path d="M4421 2297 c-51 -30 -65 -91 -28 -125 35 -33 129 -31 162 3 28 27 33
80 11 110 -17 24 -111 31 -145 12z"/>
<path d="M4480 1965 c0 -24 25 -45 54 -45 21 0 46 28 46 51 0 16 -7 19 -50 19
-46 0 -50 -2 -50 -25z"/>
<path d="M4480 1016 c0 -25 16 -36 54 -36 27 0 46 18 46 42 0 15 -9 18 -50 18
-46 0 -50 -2 -50 -24z"/>
<path d="M2231 2972 c-17 -31 -531 -1349 -531 -1361 0 -8 145 -12 471 -13
l472 -3 38 -85 c21 -47 38 -88 38 -92 1 -5 -246 -8 -549 -8 l-550 0 -14 -22
c-27 -42 -397 -962 -416 -1037 -11 -41 -20 -104 -20 -139 0 -60 2 -67 34 -96
42 -40 94 -56 182 -56 42 0 80 -6 98 -15 24 -13 155 -15 977 -15 l948 0 38 25
c59 38 63 44 63 78 0 20 -76 199 -204 482 -390 861 -440 974 -698 1585 -143
338 -276 653 -297 700 -37 87 -61 108 -80 72z"/>
</g>
</svg>
